<?xml version="1.0" standalone="no"?><!DOCTYPE svg PUBLIC "-//W3C//DTD SVG 1.1//EN" "http://www.w3.org/Graphics/SVG/1.1/DTD/svg11.dtd"><svg t="1567153408625" class="icon" viewBox="0 0 1024 1024" version="1.1" xmlns="http://www.w3.org/2000/svg" p-id="956" xmlns:xlink="http://www.w3.org/1999/xlink" width="200" height="200"><defs><style type="text/css"></style></defs><path d="M627.2 421.7344a285.3888 285.3888 0 0 0-76.8 27.4944V137.728a9.5232 9.5232 0 0 0-9.6256-9.728H137.6768a9.6256 9.6256 0 0 0-9.6256 9.728v748.544c0 5.5808 4.3008 9.728 9.6256 9.728h332.4928a288.512 288.512 0 0 0 111.104 76.8H89.3952A38.3488 38.3488 0 0 1 51.2 934.4V89.6A38.4 38.4 0 0 1 89.4464 51.2h499.5072c21.0944 0 38.2464 17.2032 38.2464 38.4v332.1856z m-197.1712 147.8656c-12.8 24.1664-22.016 50.0224-27.4432 76.8h-25.088A19.1488 19.1488 0 0 1 358.4 626.9952v-37.9904c0-10.752 8.704-19.4048 19.1488-19.4048h52.48z m-30.72 172.8c3.584 26.4704 10.752 52.3264 21.4528 76.8h-43.2128A19.1488 19.1488 0 0 1 358.4 799.7952v-37.9904c0-10.752 8.704-19.4048 19.1488-19.4048H399.36zM166.4 243.4048c0-10.752 8.704-19.4048 19.1488-19.4048h115.3024c10.5472 0 19.1488 8.4992 19.1488 19.4048v37.9904c0 10.752-8.704 19.4048-19.1488 19.4048H185.5488a19.1488 19.1488 0 0 1-19.1488-19.4048v-37.9904z m0 172.8c0-10.752 8.704-19.4048 19.1488-19.4048h115.3024c10.5472 0 19.1488 8.4992 19.1488 19.4048v37.9904c0 10.752-8.704 19.4048-19.1488 19.4048H185.5488a19.1488 19.1488 0 0 1-19.1488-19.4048V416.256z m0 172.8c0-10.752 8.704-19.4048 19.1488-19.4048h115.3024c10.5472 0 19.1488 8.4992 19.1488 19.4048v37.9904c0 10.752-8.704 19.4048-19.1488 19.4048H185.5488a19.1488 19.1488 0 0 1-19.1488-19.4048v-37.9904z m0 172.8c0-10.752 8.704-19.4048 19.1488-19.4048h115.3024c10.5472 0 19.1488 8.4992 19.1488 19.4048v37.9904c0 10.752-8.704 19.4048-19.1488 19.4048H185.5488a19.1488 19.1488 0 0 1-19.1488-19.4048v-37.9904zM358.4 243.4048c0-10.752 8.704-19.4048 19.1488-19.4048h115.3024c10.5472 0 19.1488 8.4992 19.1488 19.4048v37.9904c0 10.752-8.704 19.4048-19.1488 19.4048H377.5488A19.1488 19.1488 0 0 1 358.4 281.3952v-37.9904z m0 172.8c0-10.752 8.704-19.4048 19.1488-19.4048h115.3024c10.5472 0 19.1488 8.4992 19.1488 19.4048v37.9904c0 10.752-8.704 19.4048-19.1488 19.4048H377.5488A19.1488 19.1488 0 0 1 358.4 454.1952V416.256zM704 972.8a268.8 268.8 0 1 1 0-537.6 268.8 268.8 0 0 1 0 537.6z m0-57.6a211.2 211.2 0 1 0 0-422.4 211.2 211.2 0 0 0 0 422.4z m-130.3552-185.856V691.2h126.8736v-37.2736l2.3552-1.3824a441.6 441.6 0 0 0 59.392-41.472h-156.3648v-36.864h213.5552v32.1024l-1.4336 3.4304a569.856 569.856 0 0 1-78.7456 64.256v17.2032h114.2784v38.1952H739.328v88.8832c0 22.8864-12.032 35.2256-34.56 35.2256h-57.7024l-10.752-38.144 6.5536 0.256c15.36 0.6144 31.9488 0.9216 49.92 0.9216 5.7344 0 7.7824-1.9456 7.7824-7.4752v-79.6672h-126.8736z"  p-id="957"></path></svg>
