<?xml version="1.0" standalone="no"?><!DOCTYPE svg PUBLIC "-//W3C//DTD SVG 1.1//EN" "http://www.w3.org/Graphics/SVG/1.1/DTD/svg11.dtd"><svg t="1567153402815" class="icon" viewBox="0 0 1024 1024" version="1.1" xmlns="http://www.w3.org/2000/svg" p-id="829" xmlns:xlink="http://www.w3.org/1999/xlink" width="200" height="200"><defs><style type="text/css"></style></defs><path d="M632.470588 417.641412a298.465882 298.465882 0 0 0-80.323764 28.702117V120.591059A9.938824 9.938824 0 0 0 542.117647 110.441412H120.470588a10.029176 10.029176 0 0 0-10.029176 10.149647v782.817882c0 5.812706 4.487529 10.149647 10.029176 10.149647h347.768471A301.748706 301.748706 0 0 0 584.372706 993.882353H70.113882A40.056471 40.056471 0 0 1 30.117647 953.705412V70.264471C30.117647 48.188235 48.007529 30.208 70.113882 30.117647h522.360471A40.056471 40.056471 0 0 1 632.470588 70.294588v347.346824zM426.255059 572.235294a299.068235 299.068235 0 0 0-28.702118 80.323765h-26.172235a20.028235 20.028235 0 0 1-19.998118-20.299294v-39.755294c0-11.203765 9.095529-20.269176 19.998118-20.269177h54.874353z m-32.075294 180.705882a299.068235 299.068235 0 0 0 22.407529 80.323765h-45.17647a20.028235 20.028235 0 0 1-20.028236-20.299294v-39.755294c0-11.203765 9.095529-20.269176 19.998118-20.269177h22.799059zM150.588235 231.092706C150.588235 219.888941 159.683765 210.823529 170.616471 210.823529h120.591058c11.023059 0 19.998118 8.884706 19.998118 20.269177v39.755294a20.239059 20.239059 0 0 1-19.998118 20.299294H170.616471A20.028235 20.028235 0 0 1 150.588235 270.848v-39.755294z m0 180.705882c0-11.203765 9.095529-20.269176 20.028236-20.269176h120.591058c11.023059 0 19.998118 8.884706 19.998118 20.269176v39.755294a20.239059 20.239059 0 0 1-19.998118 20.299294H170.616471A20.028235 20.028235 0 0 1 150.588235 451.553882v-39.755294z m0 180.705883c0-11.203765 9.095529-20.269176 20.028236-20.269177h120.591058c11.023059 0 19.998118 8.884706 19.998118 20.269177v39.755294a20.239059 20.239059 0 0 1-19.998118 20.299294H170.616471A20.028235 20.028235 0 0 1 150.588235 632.259765v-39.755294z m0 180.705882c0-11.203765 9.095529-20.269176 20.028236-20.269177h120.591058c11.023059 0 19.998118 8.884706 19.998118 20.269177v39.755294a20.239059 20.239059 0 0 1-19.998118 20.299294H170.616471A20.028235 20.028235 0 0 1 150.588235 812.965647v-39.755294z m200.794353-542.117647c0-11.203765 9.095529-20.269176 19.998118-20.269177h120.591059c11.053176 0 20.028235 8.884706 20.028235 20.269177v39.755294a20.239059 20.239059 0 0 1-20.028235 20.299294h-120.591059a20.028235 20.028235 0 0 1-19.998118-20.299294v-39.755294z m0 180.705882c0-11.203765 9.095529-20.269176 19.998118-20.269176h120.591059c11.053176 0 20.028235 8.884706 20.028235 20.269176v39.755294a20.239059 20.239059 0 0 1-20.028235 20.299294h-120.591059a20.028235 20.028235 0 0 1-19.998118-20.299294v-39.755294z m361.411765 582.083765a281.088 281.088 0 1 1 0-562.206118 281.088 281.088 0 0 1 0 562.206118z m0-60.235294a220.852706 220.852706 0 1 0 0-441.73553 220.852706 220.852706 0 0 0 0 441.73553z"  p-id="830"></path><path d="M855.190588 663.070118l-37.436235 25.509647c-16.564706-28.491294-55.326118-72.553412-87.130353-104.026353l34.454588-21.865412c31.141647 29.485176 71.890824 71.559529 90.112 100.382118z m-210.04047-98.725647l40.749176 15.570823c-24.184471 39.755294-61.620706 83.817412-93.424941 110.652235-6.625882-8.613647-21.865412-26.503529-30.479059-34.454588 30.479059-21.865412 63.608471-57.645176 83.154824-91.76847z m110.983529 88.455529l42.736941 11.926588c-14.576941 42.736941-34.785882 78.516706-59.964235 108.333177 32.798118 27.166118 74.872471 47.375059 126.554353 58.307764-9.607529 9.276235-21.865412 28.16-28.16 40.086589-54.000941-13.914353-96.406588-36.111059-130.198588-66.921412-35.779765 30.479059-79.179294 52.675765-131.523765 68.577882a208.956235 208.956235 0 0 0-25.509647-38.430117c51.681882-13.251765 94.750118-32.798118 128.542118-60.958118-23.853176-29.485176-42.074353-64.933647-56.651295-106.014118l39.424-11.264c11.264 32.466824 26.834824 61.620706 47.706353 86.799059 20.208941-25.178353 36.111059-54.994824 47.043765-90.443294z"  p-id="831"></path></svg>
