<?xml version="1.0" encoding="UTF-8"?>
<svg width="19px" height="19px" viewBox="0 0 19 19" version="1.1" xmlns="http://www.w3.org/2000/svg" xmlns:xlink="http://www.w3.org/1999/xlink">
    <!-- Generator: Sketch 61 (89581) - https://sketch.com -->
    <title>系统</title>
    <desc>Created with Sketch.</desc>
    <g id="伴伴后台1" stroke="none" stroke-width="1" fill="none" fill-rule="evenodd" opacity="0.599999964">
        <g id="3.1.01企业列表" transform="translate(-22.000000, -343.000000)" fill="#FFFFFF" fill-rule="nonzero">
            <g id="左侧导航栏">
                <g id="系统" transform="translate(21.000000, 342.000000)">
                    <rect id="矩形" opacity="0" x="0" y="0" width="20.8" height="20.8"></rect>
                    <path d="M10.3283447,7.79699659 C11.6962969,7.79699659 12.8095162,8.91021588 12.8095162,10.2781681 C12.8095162,11.6461203 11.6962969,12.7593396 10.3283447,12.7593396 C8.96039243,12.7593396 7.84717314,11.6461203 7.84717314,10.2781681 C7.84717314,8.91021588 8.96039243,7.79699659 10.3283447,7.79699659 M10.3283447,6.69425551 C8.34892138,6.69425551 6.74442799,8.2987489 6.74442799,10.2781722 C6.74442799,12.2575954 8.34891734,13.8620888 10.3283447,13.8620888 C12.307772,13.8620888 13.9122613,12.2575954 13.9122613,10.2781722 C13.9122613,8.2987489 12.3077679,6.69425551 10.3283447,6.69425551 M19.1883619,12.4662462 C19.3459491,11.7942605 19.4262388,11.1023212 19.4262388,10.4000214 C19.4262388,9.69772166 19.3459491,9.00578236 19.1883619,8.3337967 C19.1188022,8.03718342 18.8219616,7.85312259 18.5253524,7.9226823 C18.2287391,7.99224201 18.0446783,8.28908263 18.114238,8.58569185 C18.2524927,9.17523214 18.322974,9.78265155 18.322974,10.4000214 C18.322974,11.0173913 18.2524927,11.6248107 18.114238,12.214351 C18.0446783,12.5109643 18.2287391,12.8078008 18.5253524,12.8773605 C18.8219616,12.9469203 19.1188022,12.7628594 19.1883619,12.4662462 L19.1883619,12.4662462 Z M18.5366141,12.8897265 C18.5715076,12.8897265 18.6007094,12.8902543 18.6273373,12.8914113 C18.9317088,12.9046461 19.189182,12.6686327 19.2024127,12.3642612 C19.2156475,12.0598898 18.9796341,11.8024206 18.6752626,11.7891899 C18.631121,11.7872696 18.586411,11.7864617 18.5366182,11.7864617 C18.2319585,11.7864617 17.9849878,12.0334365 17.9849878,12.3380962 C17.9849878,12.6427518 18.2319544,12.8897265 18.5366141,12.8897265 L18.5366141,12.8897265 Z M16.7355275,16.2082494 C16.5103251,15.8623427 16.3887317,15.4593478 16.3887317,15.037609 C16.3887317,13.8513589 17.350364,12.8897265 18.5366141,12.8897265 C18.8412698,12.8897265 19.0882445,12.6427518 19.0882445,12.3380921 C19.0882445,12.0334365 18.8412698,11.7864577 18.5366141,11.7864577 C16.7410447,11.7864577 15.2854668,13.2420396 15.2854668,15.037605 C15.2854668,15.6748108 15.4700595,16.2865944 15.8109403,16.8101882 C15.9771626,17.0655057 16.3188878,17.1377327 16.5742053,16.9715063 C16.8295228,16.805288 16.9017498,16.4635629 16.7355275,16.2082494 L16.7355275,16.2082494 Z M13.0023785,19.0450832 C14.3750116,18.632828 15.6256534,17.8975509 16.6556519,16.9067817 C16.8752193,16.6955774 16.881995,16.3463661 16.6707907,16.1268027 C16.4595864,15.9072394 16.1103751,15.9004596 15.8908117,16.1116639 C14.9863893,16.9816394 13.8888893,17.6268794 12.685024,17.9884486 C12.3932418,18.0760824 12.2277462,18.383661 12.3153799,18.6754432 C12.4030136,18.9672213 12.7105923,19.1327169 13.0023785,19.0450832 L13.0023785,19.0450832 Z M8.45603781,18.7516162 C8.80760788,18.0044157 9.55965581,17.5173881 10.4000235,17.5173881 C11.2405415,17.5173881 11.9930563,18.0045618 12.3445614,18.7516162 C12.4742663,19.0272853 12.8028906,19.1456107 13.0785556,19.0159058 C13.3542247,18.8861969 13.47255,18.5575765 13.3428452,18.2819116 C12.8110142,17.1516007 11.6718693,16.4141233 10.4000235,16.4141233 C9.12826295,16.4141233 7.98962558,17.1515114 7.457754,18.2819116 C7.32804912,18.5575766 7.44637047,18.8862009 7.72203951,19.0159058 C7.99770857,19.1456107 8.32632889,19.0272853 8.45603781,18.7516162 L8.45603781,18.7516162 Z M4.16914745,16.9303648 C5.19470057,17.9089791 6.43632155,18.6356455 7.79807454,19.0450385 C8.08983236,19.1327534 8.39745567,18.9673431 8.48517057,18.6755853 C8.57288547,18.3838275 8.40747511,18.0762041 8.11571731,17.9884892 C6.92114879,17.6293559 5.83141512,16.9915817 4.93079669,16.132186 C4.71038488,15.9218626 4.361206,15.930043 4.15088265,16.1504548 C3.94055931,16.3708666 3.94873564,16.7200415 4.16914745,16.9303648 L4.16914745,16.9303648 Z M2.30092474,12.8897265 C3.48717484,12.8897265 4.44880723,13.8513589 4.44880723,15.037609 C4.44880723,15.4666634 4.3230119,15.8763407 4.09061977,16.2258322 C3.92192915,16.4795258 3.99083525,16.821933 4.2445248,16.9906277 C4.49821842,17.1593183 4.84062564,17.0904163 5.00932033,16.8367227 C5.36112586,16.3076483 5.55207203,15.6857883 5.55207203,15.0376131 C5.55207203,13.2420477 4.09649017,11.7864658 2.30092474,11.7864658 C1.99626505,11.7864658 1.74929032,12.0334405 1.74929032,12.3381002 C1.74929032,12.6427518 1.99626911,12.8897265 2.30092474,12.8897265 L2.30092474,12.8897265 Z M2.17956265,12.8927551 C2.21674995,12.8907131 2.25694144,12.8897265 2.30092474,12.8897265 C2.60558443,12.8897265 2.85255917,12.6427518 2.85255917,12.3380921 C2.85255917,12.0334365 2.60558443,11.7864577 2.30092474,11.7864577 C2.23769823,11.7864577 2.17755714,11.7879314 2.11903181,11.7911508 C1.81483087,11.8078647 1.58178107,12.0680174 1.59849505,12.3722184 C1.61521309,12.6764152 1.8753617,12.9094691 2.17956265,12.8927551 L2.17956265,12.8927551 Z M1.61221294,8.33224994 C1.45437807,9.00587978 1.37380833,9.69828596 1.37380833,10.4000214 C1.37380833,11.1017569 1.45437402,11.7941671 1.61221294,12.4677929 C1.68171581,12.7644184 1.97851582,12.948536 2.27514127,12.8790372 C2.57176672,12.8095343 2.7558844,12.5127303 2.68638557,12.2161089 C2.54781826,11.6247052 2.47707312,11.0167377 2.47707312,10.4000214 C2.47707312,9.78330519 2.54781422,9.17533364 2.68638557,8.58393398 C2.75588844,8.28730853 2.57176672,7.99050446 2.27514127,7.92100565 C1.97851582,7.85150277 1.68171175,8.03562449 1.61221294,8.33224994 L1.61221294,8.33224994 Z M2.30092474,7.91031633 C2.25693737,7.91031633 2.21674588,7.90932982 2.17956265,7.90728776 C1.87536172,7.89057378 1.61521309,8.12362765 1.59849505,8.42782452 C1.58178107,8.73202545 1.81483494,8.99217408 2.11903181,9.00889212 C2.17755308,9.01210745 2.23769823,9.01358112 2.30092474,9.01358112 C2.60558443,9.01358112 2.85255917,8.76660639 2.85255917,8.4619467 C2.85255917,8.15729107 2.60558443,7.91031633 2.30092474,7.91031633 L2.30092474,7.91031633 Z M4.09061975,4.57421478 C4.32304435,4.92375091 4.44880721,5.33344033 4.44880721,5.76298598 C4.44880721,6.94909804 3.48731285,7.91031633 2.30092472,7.91031633 C1.99626503,7.91031633 1.7492903,8.15729107 1.7492903,8.46195076 C1.7492903,8.76661045 1.99626503,9.01358518 2.30092472,9.01358518 C4.09656321,9.01358518 5.55207201,7.55848643 5.55207201,5.76299003 C5.55207201,5.114352 5.36117051,4.49247175 5.00932031,3.96332832 C4.84062969,3.7096347 4.4982184,3.64072861 4.24452478,3.80942329 C3.99083116,3.97811798 3.92192913,4.32052116 4.09061975,4.57421478 L4.09061975,4.57421478 Z M7.79807454,1.75500433 C6.43632155,2.16440144 5.19470057,2.89106376 4.16914745,3.86967807 C3.94873564,4.08000141 3.94055931,4.4291803 4.15088265,4.64959211 C4.361206,4.87000392 4.71038488,4.87818025 4.93079669,4.6678569 C5.83141514,3.80845707 6.92114879,3.17068698 8.11571731,2.81155361 C8.40747513,2.72383871 8.57288547,2.4162154 8.48517057,2.12445758 C8.39745567,1.83270382 8.08983236,1.66729347 7.79807454,1.75500433 L7.79807454,1.75500433 Z M12.3445614,2.04842664 C11.9930847,2.79542423 11.2406064,3.28265888 10.4005757,3.28265888 C9.55971672,3.28265888 8.80763225,2.79568404 8.45603783,2.04842664 C8.32633295,1.77275759 7.99770857,1.6544322 7.72204361,1.78414113 C7.44637457,1.913846 7.32804918,2.24247038 7.4577581,2.51813534 C7.98967028,3.64861668 9.12836043,4.38592367 10.4005797,4.38592367 C11.6719668,4.38592367 12.8110589,3.64836499 13.3428493,2.51813534 C13.4725541,2.2424663 13.3542287,1.91384598 13.0785597,1.78414113 C12.8028906,1.6544322 12.4742663,1.77275759 12.3445614,2.04842664 L12.3445614,2.04842664 Z M16.6555342,3.89315154 C15.6255844,2.90302378 14.3750522,2.16781163 13.0025815,1.75502462 C12.7108318,1.66727724 12.4031923,1.83265511 12.3154449,2.12440075 C12.2276975,2.41614638 12.3930754,2.72378998 12.6848251,2.81153736 C13.8888082,3.17364653 14.9864259,3.81895965 15.8909335,4.68849666 C16.1105618,4.899636 16.4597691,4.89275067 16.6709085,4.67312239 C16.8820478,4.45349411 16.8751625,4.10429088 16.6555342,3.89315154 L16.6555342,3.89315154 Z M18.5366141,7.91031633 C17.3502219,7.91031633 16.3887316,6.94909804 16.3887316,5.76298598 C16.3887316,5.340756 16.5102967,4.93774893 16.7355274,4.59179754 C16.9017497,4.33648002 16.8295228,3.99475483 16.5742053,3.82853254 C16.3188877,3.66231023 15.9771625,3.7345372 15.8109403,3.98985472 C15.4700108,4.51351749 15.2854668,5.12532144 15.2854668,5.76299003 C15.2854668,7.55848643 16.7409756,9.01358518 18.5366141,9.01358518 C18.8412697,9.01358518 19.0882445,8.76661045 19.0882445,8.46195076 C19.0882445,8.15729107 18.8412697,7.91031633 18.5366141,7.91031633 L18.5366141,7.91031633 Z M18.6273373,7.9086356 C18.6007094,7.90979262 18.5715117,7.9103204 18.5366141,7.9103204 C18.2319544,7.9103204 17.9849838,8.15729513 17.9849838,8.46195482 C17.9849838,8.76661451 18.2319544,9.01358924 18.5366141,9.01358924 C18.586411,9.01358924 18.631121,9.01278135 18.6752585,9.01086515 C18.97963,8.99763038 19.2156434,8.7401612 19.2024087,8.43578974 C19.1891779,8.13141424 18.9317088,7.89540083 18.6273373,7.9086356 L18.6273373,7.9086356 Z" id="形状"></path>
                </g>
            </g>
        </g>
    </g>
</svg>