<?xml version="1.0" encoding="UTF-8"?>
<svg width="22px" height="19px" viewBox="0 0 22 19" version="1.1" xmlns="http://www.w3.org/2000/svg" xmlns:xlink="http://www.w3.org/1999/xlink">
    <!-- Generator: Sketch 55.2 (78181) - https://sketchapp.com -->
    <title></title>
    <desc>Created with Sketch.</desc>
    <g id="Page-1" stroke="none" stroke-width="1" >
        <g id="特约配置详情页备份-2" transform="translate(-811.000000, -557.000000)">
            <g id="箭头" transform="translate(800.000000, 544.000000)">
                <g transform="translate(22.000000, 22.500000) scale(-1, 1) translate(-22.000000, -22.500000) translate(11.000000, 13.000000)">
                    <rect id="矩形" opacity="0" x="0" y="0" width="19" height="19"></rect>
                    <path d="M7.16809118,14 C6.96296297,14 6.75783477,13.9332804 6.5982906,13.7776013 L0.239316244,7.55043685 C-0.0797720812,7.23907863 -0.0797720812,6.74980142 0.239316244,6.43844321 L6.5982906,0.23351867 C6.91737892,-0.0778395567 7.41880343,-0.0778395567 7.73789173,0.23351867 C8.05698004,0.544876897 8.05698006,1.0341541 7.73789173,1.34551231 L1.97150998,6.99444004 L7.76068376,12.6433678 C8.07977208,12.954726 8.07977208,13.4440032 7.76068376,13.7553614 C7.6011396,13.9110405 7.37321938,14 7.16809118,14 Z" id="路径" ></path>
                    <path d="M12,13.785546 C11.695684,14.0714847 11.2275055,14.0714847 10.9231895,13.785546 L4.22823702,7.49489394 C3.92392099,7.20895521 3.92392099,6.76904948 4.22823702,6.48311077 L10.9231895,0.214454048 C11.2275055,-0.0714846828 11.695684,-0.0714846828 12,0.214454048" id="路径" ></path>
                    <path d="M12,9.93571428 C12,9.93571428 20.8240178,9.27142857 19.2826071,19 C19.2826071,19 23.4377142,14.3928571 21.4718571,9.48571428 C20.4889285,7.70714286 19.3049464,4.04285715 12,4 L12,9.93571428 Z" id="路径" ></path>
                </g>
            </g>
        </g>
    </g>
</svg>