<?xml version="1.0" encoding="UTF-8"?>
<svg width="20px" height="21px" viewBox="0 0 20 21" version="1.1" xmlns="http://www.w3.org/2000/svg" xmlns:xlink="http://www.w3.org/1999/xlink">
    <!-- Generator: Sketch 61 (89581) - https://sketch.com -->
    <title>企业管理平台</title>
    <desc>Created with Sketch.</desc>
    <g id="伴伴后台1" stroke="none" stroke-width="1"  fill-rule="evenodd">
        <g id="3.1.01企业列表" transform="translate(-21.000000, -118.000000)" fill-rule="nonzero">
            <g id="左侧导航栏">
                <g id="企业管理平台" transform="translate(21.000000, 118.000000)">
                    <rect id="矩形"  opacity="0" x="0" y="0" width="20.8" height="20.8"></rect>
                    <path d="M8.91428281,2.97143438 C8.91428281,2.08 8.32,1.48571719 7.42856563,1.48571719 L2.97143437,1.48571719 C2.08,1.48571719 1.48571719,2.08 1.48571719,2.97143438 L1.48571719,17.8285656 C1.48571719,18.72 2.08,19.3142828 2.97143437,19.3142828 L8.91428281,19.3142828 L8.91428281,2.97143438 Z M2.97143438,0 L7.42856563,0 C9.06284844,0 10.4,1.33715156 10.4,2.97143438 L10.4,20.8 L2.97143438,20.8 C1.33715156,20.8 0,19.4628484 0,17.8285656 L0,2.97143438 C0,1.33715156 1.33715156,0 2.97143438,0 Z M3.71428281,4.45715156 L6.68571719,4.45715156 C7.13143438,4.45715156 7.42856563,4.75428281 7.42856563,5.2 C7.42856563,5.64571719 7.13143438,5.94284844 6.68571719,5.94284844 L3.71428281,5.94284844 C3.26856562,5.94284844 2.97143437,5.64571719 2.97143437,5.2 C2.97143437,4.75428281 3.26856562,4.45715156 3.71428281,4.45715156 Z M3.71428281,8.91428281 L6.68571719,8.91428281 C7.13143438,8.91428281 7.42856563,9.21143438 7.42856563,9.65715156 C7.42856563,10.1028688 7.13143438,10.4 6.68571719,10.4 L3.71428281,10.4 C3.26856562,10.4 2.97143437,10.1028484 2.97143437,9.65715156 C2.97143437,9.21145469 3.26856562,8.91428281 3.71428281,8.91428281 Z M3.71428281,13.3714344 L6.68571719,13.3714344 C7.13143438,13.3714344 7.42856563,13.6685656 7.42856563,14.1142828 C7.42856563,14.56 7.13143438,14.8571516 6.68571719,14.8571516 L3.71428281,14.8571516 C3.26856562,14.8571516 2.97143437,14.56 2.97143437,14.1142828 C2.97143437,13.6685656 3.26856562,13.3714344 3.71428281,13.3714344 Z M14.1142828,8.91428281 C14.56,8.91428281 14.8571516,9.21143438 14.8571516,9.65715156 L14.8571516,11.1428484 C14.8571516,11.5885656 14.56,11.8857172 14.1142828,11.8857172 C13.6685656,11.8857172 13.3714344,11.5885656 13.3714344,11.1428484 L13.3714344,9.65717188 C13.3714344,9.21145469 13.6685656,8.91428281 14.1142828,8.91428281 L14.1142828,8.91428281 Z M14.1142828,13.3714344 C14.56,13.3714344 14.8571516,13.6685656 14.8571516,14.1142828 L14.8571516,15.6 C14.8571516,16.0457172 14.56,16.3428484 14.1142828,16.3428484 C13.6685656,16.3428484 13.3714344,16.0457172 13.3714344,15.6 L13.3714344,14.1142828 C13.3714344,13.6685656 13.6685656,13.3714344 14.1142828,13.3714344 Z M10.4,19.3142828 L17.8285656,19.3142828 L17.8285656,8.91428281 C17.8285656,8.02284844 17.2342828,7.42856562 16.3428484,7.42856562 L10.4,7.42856562 L10.4,19.3142828 Z M8.91428281,5.94284844 L16.3428484,5.94284844 C17.9771516,5.94284844 19.3142828,7.28 19.3142828,8.91428281 L19.3142828,20.8 L8.91428281,20.8 L8.91428281,5.94284844 Z" id="形状" ></path>
                </g>
            </g>
        </g>
    </g>
</svg>