<?xml version="1.0" encoding="UTF-8"?>
<svg width="96px" height="84px" viewBox="0 0 96 84" version="1.1" xmlns="http://www.w3.org/2000/svg" xmlns:xlink="http://www.w3.org/1999/xlink">
    <!-- Generator: Sketch 55.2 (78181) - https://sketchapp.com -->
    <title>未生成</title>
    <desc>Created with Sketch.</desc>
    <g id="Page-1" stroke="none" stroke-width="1" fill="none" fill-rule="evenodd">
        <g id="特约配置详情页备份-2" transform="translate(-1274.000000, -383.000000)" fill-rule="nonzero">
            <g id="未生成" transform="translate(1272.000000, 375.000000)">
                <rect id="矩形" fill="#000000" opacity="0" x="0.5" y="0.5" width="98" height="98"></rect>
                <path d="M96.8390962,36.6140107 L82.4042628,13.9015935 C81.1438209,11.9210542 78.5098982,11.3350676 76.5192483,12.5819316 L4.47921289,58.0600271 C2.4940402,59.3177062 1.90728676,61.9462149 3.15409404,63.9211723 L17.5889275,86.6366131 C18.849486,88.612152 21.4832921,89.1976735 23.4685813,87.9510419 L95.5112972,42.4760862 C97.501947,41.2174768 98.1000043,38.5923406 96.8390962,36.6140107 Z M93.9639461,40.0350375 L21.9212304,85.5159239 C21.2840174,85.9165438 20.4499768,85.7289676 20.048514,85.0957672 L5.61368048,62.380559 C5.21210108,61.7445676 5.40018849,60.9150692 6.0374016,60.5089836 L78.0829141,15.0308881 C78.7207099,14.6329429 79.5573142,14.8209842 79.9529503,15.4541846 L94.393727,38.1690441 C94.7810892,38.7913132 94.5903215,39.6262773 93.9639461,40.0350375 Z M31.8608451,25.622372 L33.0571927,28.4855545 L34.607224,25.7986681 L37.7040235,25.5492255 L35.617815,23.246097 L36.3283285,20.2339468 L33.4978114,21.5036038 L30.8389502,19.8977516 L31.1757362,22.9826995 L28.8173021,24.9891716 L31.8608451,25.622372 L31.8608451,25.622372 Z M50.2041439,17.0986452 L48.7158762,14.3726853 L47.4555508,17.2108653 L44.3949936,17.793712 L46.7056485,19.8614691 L46.3068659,22.9350206 L49.0022025,21.3799872 L51.8131418,22.7110455 L51.1645084,19.6738929 L53.2953497,17.4211181 L50.2041439,17.0986452 Z M78.1703154,62.7616421 L75.7075824,60.8728558 L75.6966282,63.9690839 L73.124702,65.7093675 L76.0867871,66.6844613 L76.9598669,69.6570729 L78.7962246,67.1549717 L81.9044445,67.2418406 L80.0795073,64.7259008 L81.1324004,61.8201563 L78.1703154,62.7616421 L78.1703154,62.7616421 Z M68.1182445,75.1065505 L66.9447377,72.2347626 L65.3691853,74.910834 L62.2749496,75.1350417 L64.3415801,77.4492177 L63.605895,80.4582281 L66.4528437,79.2171784 L69.1008671,80.8588481 L68.7890196,77.7712254 L71.1474537,75.7677769 L68.1182445,75.1065505 L68.1182445,75.1065505 Z M49.7043255,83.5013115 L51.1787255,86.2386679 L52.4646887,83.4086282 L55.5251292,82.8626454 L53.2281091,80.7720955 L53.6496159,77.701335 L50.9428589,79.2285749 L48.1460203,77.8782125 L48.7692492,80.909318 L46.6074094,83.1540687 L49.7043255,83.5013115 L49.7043255,83.5013115 Z M22.1206218,37.622945 L24.5692539,39.5421994 L24.6056128,36.4432966 L27.1889594,34.7116184 L24.2433057,33.7167553 L23.392484,30.7300727 L21.5338683,33.2153117 L18.4256484,33.1030916 L20.2255305,35.630544 L19.1525934,38.5446616 L22.1206218,37.622945 L22.1206218,37.622945 Z M11.1841672,51.0017901 C10.8586851,37.8832026 17.2521416,24.9132341 29.1628281,17.3957667 C41.0761951,9.8781832 55.5589244,9.66513938 67.3234762,15.5551247 L70.1649477,13.7616963 C66.6834663,11.8201142 62.9379168,10.3992798 58.9932091,9.5166368 C53.7225668,8.3341975 48.3542683,8.18604368 43.0473836,9.05740659 C37.5525282,9.96493578 32.3579832,11.9432656 27.6129135,14.9441357 C22.8705241,17.9448894 18.8496025,21.7779325 15.6767056,26.345116 C12.6049612,30.7496095 10.4459183,35.6560116 9.25819427,40.9067492 C8.37369412,44.8374762 8.05916627,48.8218129 8.33453828,52.7925437 L11.1841672,51.0017901 Z M88.5478683,48.9957831 C88.8874511,62.1143706 82.4941112,75.0843391 70.5834246,82.5991317 C58.672738,90.1248556 44.1873284,90.3324337 32.4254568,84.4425648 L29.5785083,86.2386679 C33.0599897,88.1746681 36.8082194,89.5986422 40.7536263,90.4809364 C46.0236859,91.6633757 51.3919845,91.817344 56.6988692,90.9400503 C62.1937246,90.0324048 67.3883862,88.056866 72.130659,85.0559959 C76.8730484,82.0551258 80.89397,78.2220828 84.0695471,73.6576902 C87.1299877,69.2476149 89.2890305,64.3444688 90.4739578,59.0962896 C91.3611383,55.1625391 91.6703055,51.1755277 91.3948169,47.2049132 L88.5478683,48.9957831 Z M37.7544832,30.9235797 C41.0902958,28.8222148 44.7597481,27.7010603 48.4438836,27.4770854 L52.8407469,24.7029813 C47.0311306,24.0193109 41.2137064,25.3252505 36.1933811,28.4886943 C31.1869235,31.6489983 27.5170052,36.3423567 25.6555926,41.8675393 L30.0497756,39.0939005 C31.8357901,35.8545192 34.4219336,33.0304103 37.7544832,30.9235797 L37.7544832,30.9235797 Z M61.9887397,69.0713189 C58.6529271,71.1786146 54.9860387,72.2993038 51.3021361,72.523395 L46.9078365,75.2973828 C52.7146561,75.9810532 58.5295165,74.6723227 63.5524056,71.5088789 C68.5588632,68.3514821 72.2286649,63.6552165 74.0872806,58.1300339 L69.695778,60.9096036 C67.9102296,64.1344487 65.321406,66.969954 61.9887397,69.0713189 Z M32.3329282,74.7436087 C30.9026949,72.3902427 29.0384854,69.422748 26.7368038,65.8419384 C26.450827,70.4835477 24.8845974,74.8296633 22.0397464,78.8799367 L21.7092533,78.7570179 C24.0799237,74.491375 25.2216164,70.0075717 25.1351475,65.3065381 L19.8787225,68.6711641 C19.1060958,69.1656302 18.4440609,69.700798 17.8927341,70.2766673 L16.6340402,70.0792065 L25.7214348,64.2624842 L23.2341131,60.3931585 L19.4031434,62.8452548 C18.6305168,63.3398373 17.9684818,63.8748888 17.417155,64.4507581 L16.1585776,64.2532973 L22.9296073,59.9192757 C22.523483,59.2874707 21.6807023,58.0436302 20.4039455,56.185777 L23.3294386,55.6507256 L22.7938441,56.7737406 L24.26603,59.0638446 L28.1861488,56.554766 L28.7226757,54.6507457 L31.5197473,55.0897414 L24.5705358,59.5377274 L27.1085503,63.4861305 L32.9886702,59.7225126 L33.5636536,57.6825489 L36.5005672,58.1434072 L28.214933,63.4467081 C32.501088,65.6825046 36.8625248,66.0118385 41.2990099,64.4345937 L41.5021303,64.7505544 C40.4914227,65.3974771 40.0298278,66.1772033 40.1129173,67.0886863 C35.297577,67.4226719 31.2120951,66.2845392 27.8585691,63.6747532 L27.4131725,63.959897 C30.4256008,68.6463943 32.4169498,71.6802907 33.3905993,73.0634471 L32.3329282,74.7436087 Z M22.2582495,79.5818647 L20.8711341,79.0660011 L21.1995295,78.4751304 C23.330604,74.6405755 24.4557489,70.5736726 24.5502587,66.3716405 L20.1932503,69.1606297 C19.463159,69.6278839 18.8309569,70.1383981 18.3140079,70.6783339 L18.1033127,70.898355 L15.0287714,70.415983 L24.9164115,64.0871185 L23.0583784,61.1966079 L19.7177878,63.3348368 C18.9875799,63.8023236 18.3552613,64.3128378 17.8384288,64.8525409 L17.6278502,65.0725621 L14.5533088,64.5901901 L22.1202721,59.7468173 C21.6668347,59.0634957 20.9419873,57.9971142 19.9233555,56.5148785 L19.4153796,55.7757376 L24.3451572,54.8741392 L23.459142,56.732225 L24.4418812,58.2609767 L27.6851651,56.1850793 L28.301868,53.9964967 L33.1250161,54.7536626 L25.3756757,59.7136745 L27.284518,62.6832625 L32.4876866,59.3528259 L33.1428459,57.0284162 L38.105836,57.8070958 L29.400909,63.3787945 C31.5248748,64.3437711 33.6838011,64.8321901 35.8322393,64.8321901 C37.5663958,64.8321901 39.3398244,64.5143689 41.1034642,63.8873318 L41.5394215,63.7323169 L42.3071536,64.9265016 L41.8166581,65.2404852 C40.9983498,65.7642565 40.6307985,66.3517549 40.6931448,67.036472 L40.7469839,67.6280405 L40.1532384,67.6692073 C39.5963178,67.7078156 39.0409123,67.7273524 38.5022878,67.7273523 C34.854045,67.7274686 31.602254,66.8307544 28.8126407,65.0586073 C31.3117324,68.9343289 33.0101126,71.5119025 33.8673437,72.729694 L34.0899254,73.0460034 L32.323955,75.8509245 L31.8345082,75.0454981 C30.5878175,72.9940217 29.0168099,70.4859898 27.1555138,67.5746632 C26.6194531,71.6809884 25.0630124,75.5888062 22.5166074,79.2141549 L22.2582495,79.5818647 L22.2582495,79.5818647 Z M26.5264582,64.4380825 L27.2270662,65.528071 C29.2478987,68.6718618 30.9646914,71.3947981 32.3403864,73.6385023 L32.6920888,73.0798439 C31.652131,71.5759783 29.7590208,68.6863981 26.922677,64.2737643 L23.7655124,59.3622454 L23.7655124,59.3621291 L22.1285461,56.8156051 L22.3136035,56.4275445 L21.3916957,56.596049 C22.4236126,58.1020079 23.0741106,59.067217 23.4199863,59.6051758 L23.7346306,60.0946414 L23.7345141,60.0947577 L26.5264582,64.4380825 L26.5264582,64.4380825 Z M25.7115294,64.9596442 L25.7177057,65.2959557 C25.7558126,67.3668526 25.5567709,69.407514 25.1232609,71.4081715 C25.6923593,69.5892594 26.038849,67.7083211 26.1551779,65.8063536 L26.2276626,64.6293799 L25.7115294,64.9596442 L25.7115294,64.9596442 Z M32.9435712,65.7241364 C34.6612962,66.2830274 36.5180475,66.5643335 38.5024044,66.5642172 C38.8426865,66.5642172 39.1903102,66.5560769 39.5409638,66.53968 C39.58851,66.1578991 39.7185631,65.7982132 39.930307,65.4620182 C38.5581081,65.8160057 37.185443,65.9947438 35.8322393,65.9947438 C34.8689614,65.9947438 33.9048679,65.9041537 32.9435712,65.7241364 L32.9435712,65.7241364 Z M33.9844613,58.3371468 L33.7347269,59.2229297 L34.8952984,58.4800675 L33.9844613,58.3371468 Z M29.1434833,55.3054598 L28.9322055,56.0552994 L29.914595,55.4264016 L29.1434833,55.3054598 L29.1434833,55.3054598 Z M39.0854287,46.1231812 L41.7944,45.8381538 C41.3696301,46.4826344 41.282695,47.9124231 41.5344104,50.1286828 L46.7908354,46.7641731 C45.2346278,44.3433589 44.0697446,42.5983072 43.3007305,41.5301813 L45.9465398,40.9512884 L45.5892437,41.9603389 L48.1272581,45.908742 L53.2055013,42.6583131 L53.7804847,40.6183494 L56.5392163,41.1932884 L48.4318805,46.3826248 L51.5790231,51.2787934 L55.5881746,48.7126163 L56.2523073,46.6156705 L58.9218896,47.2475917 L51.8836454,51.7525599 L55.5384142,57.4384557 L61.95308,53.3325956 L62.5664034,51.1566887 L65.464977,51.7534902 L47.7354677,63.1015585 C46.962841,63.5960247 46.3009226,64.1311925 45.7495958,64.7071781 L44.4909019,64.509601 L54.2019916,58.2938868 L50.5472227,52.607991 L47.1616497,54.7749437 C46.389023,55.2695262 45.726988,55.8045777 45.1757777,56.3805632 L43.9169673,56.1831024 L50.2424839,52.1343408 L47.0953413,47.2381722 L41.6607343,50.7167626 C41.7490678,53.8557855 41.5642434,56.2399684 41.1043966,57.8717532 L40.7355635,57.8850103 C40.8651503,55.8706304 40.7623665,53.8185726 40.4259302,51.7298834 C40.0900765,49.6424732 39.6428154,47.7726423 39.0854287,46.1231812 L39.0854287,46.1231812 Z M45.960291,65.3287495 L42.8858662,64.846145 L53.3970847,58.1182886 L50.3714881,53.4112078 L47.4764106,55.2642931 C46.7459696,55.7317799 46.1137675,56.2424104 45.5972847,56.7821135 L45.3865895,57.0021347 L42.311815,56.5197627 L49.4375771,51.9587425 L46.9196066,48.041389 L42.2516831,51.0292346 C42.3209048,54.093134 42.1287387,56.3850986 41.6653957,58.0289776 L41.5502592,58.4373889 L40.1129173,58.4891382 L40.1541706,57.8475648 C40.2804945,55.8835387 40.1784099,53.8562507 39.8507136,51.8221015 C39.5217355,49.7772537 39.0785531,47.9223078 38.5334027,46.3088968 L38.3009155,45.6209236 L42.9577682,45.1308765 L42.2812829,46.1574869 C42.1110253,46.4158838 41.8749256,47.1365345 42.0238572,49.1244002 L45.985346,46.5888075 C44.6067376,44.4525554 43.5454539,42.8664727 42.8274822,41.8694 L42.3105332,41.1515402 L46.8449077,40.1594681 L46.2334489,41.8857969 L48.3029928,45.1054089 L52.7045176,42.2881612 L53.3669022,39.9381677 L58.0533548,40.9148895 L49.2369039,46.5581068 L51.7547578,50.475344 L55.0960476,48.3366499 L55.8599341,45.9250227 L60.3913953,46.997684 L52.6886688,51.9279256 L55.7142655,56.6350063 L61.4520963,52.9624437 L62.1524713,50.4777861 L66.9833108,51.4724167 L48.0501121,63.5910243 C47.3202537,64.0581622 46.6880516,64.5686764 46.1709861,65.1088446 L45.960291,65.3287495 L45.960291,65.3287495 Z M50.723074,51.8045416 L54.6824651,57.964204 L55.0380132,57.7367401 L51.4032884,52.0820102 L51.4032884,52.0821265 L47.6269737,46.2071428 L44.9450386,42.034881 L45.0482885,41.743225 L44.2816051,41.9109156 C45.0353531,42.9989273 46.0409331,44.520469 47.2814476,46.4501894 L47.5960919,46.9396551 L50.723074,51.8045416 Z M62.980219,51.8355912 L62.6991367,52.8328964 L63.9465267,52.0345638 L62.980219,51.8355912 L62.980219,51.8355912 Z M39.860153,46.6263692 C40.3246612,48.1312813 40.7077115,49.8131873 41.0012632,51.6376652 C41.0363401,51.8558256 41.0690865,52.0739862 41.0991525,52.2919141 C41.1002013,51.9097844 41.0963557,51.514165 41.087499,51.1054047 L41.0608125,51.1224993 L40.9553484,50.1940379 C40.7708736,48.5694631 40.7615508,47.3649286 40.9326241,46.5135676 L39.860153,46.6263692 L39.860153,46.6263692 Z M56.6446804,47.3060857 L56.3633651,48.194427 L57.4525006,47.4972669 L56.6446804,47.3060857 L56.6446804,47.3060857 Z M54.1940672,41.2985311 L53.9516744,42.1587302 L55.0250778,41.4716873 L54.1940672,41.2985311 Z M85.9198888,37.211859 L84.8062809,33.1320479 L85.2133376,32.9828475 C86.0247704,34.7676703 86.6003364,35.923014 86.9382878,36.4487622 C87.2761225,36.9743942 87.7457584,37.380945 88.348244,37.6639955 C88.6014744,37.7980781 88.6097484,37.9425106 88.3731824,38.0939205 C87.9569196,38.3603415 87.0653109,38.6697899 85.7013858,39.0237774 C84.3352468,39.3774161 82.3856172,39.214726 79.8523807,38.5319859 C79.0940878,41.3963312 77.8856205,43.9515769 76.2307078,46.2002816 L75.9385547,45.9415359 C77.4338145,43.0530022 78.3158675,40.4454258 78.5813341,38.1195044 C76.140976,36.9333438 73.5423633,34.5839318 70.7826994,31.0733615 L63.7444551,35.5783297 L66.0919349,39.4259091 L70.1902357,36.8027498 L70.4843699,35.4998338 L72.5314227,35.7499741 L72.0848608,36.8160069 C73.9371837,40.0889962 74.8752899,42.0710473 74.8999953,42.7607648 C74.924118,43.4523429 74.6219429,44.2204401 73.9940527,45.068196 C73.3423893,44.445578 72.1511691,44.353011 70.4210914,44.7915416 L70.2180875,44.4756972 C71.4471815,43.911922 72.3033638,43.5137441 72.7820893,43.2803497 C73.2616306,43.0483506 73.3993749,42.645056 73.1970703,42.0674423 C72.9941829,41.492038 72.1226181,39.8763013 70.5838908,37.2196504 L66.3965573,39.899792 C69.0275666,44.3842931 69.742625,48.2352449 68.5428978,51.455322 L68.2124047,51.3324032 C68.5046743,48.3971209 67.9766546,45.7814042 66.6269469,43.4861834 C65.2781715,41.191893 64.2312216,39.4655641 63.4865633,38.3069643 C62.7426043,37.1495273 62.0686827,36.1683864 61.4686443,35.3631928 L63.5290985,35.0474647 L70.3892774,30.656461 C69.3299506,29.3277528 68.2677321,28.001343 67.2026295,26.677241 L70.0266207,25.984151 L69.8091664,27.0151804 C70.3507043,27.8578196 71.0184495,28.7681397 71.8147328,29.7440476 L76.714794,26.6075831 L77.2514373,24.7035628 L80.048509,25.1424422 L72.1192386,30.2178141 C74.7091111,33.4644054 76.9063774,35.5132071 78.710921,36.3644519 C78.77956,35.4288968 78.7299162,34.3093704 78.562805,33.0038961 C78.3951112,31.7006311 78.1416478,30.2640976 77.8054445,28.6958073 L80.4885449,28.7619764 L79.9404811,29.6699707 C80.3178212,32.4762872 80.4127972,34.9041951 80.223428,36.9568344 C82.3168616,37.47514 84.2150993,37.5611948 85.9198888,37.211859 L85.9198888,37.211859 Z M71.1856772,24.4620279 C72.839075,24.295384 73.9833315,24.2508448 74.6192627,24.3263171 C75.2546112,24.4038827 75.6385939,24.6404171 75.7692295,25.0392927 C75.9005644,25.4393312 75.8885613,25.7813408 75.7361335,26.0638099 C75.58289,26.3481395 75.4760276,26.5088527 75.4176435,26.5462981 C75.1795627,26.6986383 74.8665498,26.6028151 74.4769735,26.2566191 C73.9266955,25.7919233 72.7905964,25.3296695 71.0707738,24.8700904 L71.1856772,24.4620279 L71.1856772,24.4620279 Z M68.8857436,52.2034173 L67.5880105,51.720929 L67.6324103,51.2750722 C67.9109289,48.4775937 67.4035357,45.9560722 66.1242151,43.7806304 C64.786627,41.5055278 63.7342,39.7696632 62.9958346,38.6210643 C62.2714535,37.4939791 61.6002122,36.5146988 61.000873,35.7103192 L60.4232093,34.9352446 L63.3182868,34.4915973 L69.5311141,30.5149357 C68.6058403,29.3552815 67.6782203,28.1974933 66.7482597,27.0415783 L66.1758401,26.3305797 L70.4020963,25.2933869 L70.3503547,25.2795484 L70.7323562,23.9233714 L71.1272932,23.8836001 C72.273997,23.7680077 73.1971868,23.7093974 73.8712249,23.7093974 C74.1964739,23.7093974 74.4636885,23.7223056 74.6883679,23.7490523 C75.7833301,23.8825536 76.1816466,24.4262105 76.3233531,24.8586939 C76.3889623,25.0589457 76.4277684,25.251755 76.4395385,25.4366565 L76.8306296,24.0491975 L81.6536612,24.8060145 L72.9800822,30.3578275 C74.9543006,32.7743391 76.6900886,34.4620596 78.15738,35.3928468 C78.1515533,34.7051062 78.093985,33.9303805 77.9849083,33.0778566 C77.8214097,31.8072693 77.5693446,30.3737593 77.2357051,28.8176795 L77.0811798,28.0965635 L81.5048461,28.2056438 L80.5450644,29.7957967 C80.8749748,32.325575 80.9753114,34.5785823 80.8442095,36.504349 C81.871232,36.7277425 82.8538545,36.8407767 83.7712176,36.840893 L83.7714508,36.840893 C84.2563526,36.840893 84.7308829,36.8092621 85.1892148,36.7466979 L84.1039249,32.7701526 L85.5206401,32.2508003 L85.7442708,32.7425919 C86.5389225,34.490667 87.105865,35.6319395 87.4290163,36.1347786 C87.7106813,36.572844 88.0925663,36.9010151 88.5966964,37.1378984 L88.6216349,37.1503414 C89.0241465,37.3635014 89.1186564,37.6488777 89.1269304,37.850525 C89.1352044,38.0513582 89.0658661,38.3415024 88.6879434,38.5832699 C88.2107328,38.8886481 87.3084027,39.2073997 85.8483364,39.5863897 C85.3351165,39.7193094 84.7453332,39.7866415 84.0950683,39.7866415 C83.0209657,39.7866415 81.7333712,39.6024377 80.2615348,39.238333 C79.4815664,41.9361506 78.2849857,44.3915031 76.7005767,46.5443845 L76.3221878,47.0585038 L75.2131247,46.0762 L75.421023,45.6745334 C76.7927558,43.0247436 77.6427617,40.5973008 77.9512296,38.451513 C75.6509465,37.2324423 73.1997505,35.0137405 70.6538117,31.8466917 L64.5381746,35.761138 L66.2794397,38.6151334 L69.6743355,36.4421338 L70.0318647,34.8587256 L73.3655797,35.2660904 L72.7322124,36.7780963 C75.1292195,41.0352499 75.4629757,42.2019901 75.4823204,42.7399489 C75.510988,43.5622373 75.1679092,44.4616261 74.4625232,45.4138106 L74.0691012,45.9449083 L73.5909584,45.4881202 C73.10594,45.0245872 72.0530468,44.9777222 70.5643129,45.3549678 L70.1572563,45.4581173 L69.3656345,44.2266034 L69.9746461,43.9472743 C71.2600265,43.3576827 72.0708766,42.9797394 72.5262952,42.7577413 C72.6680017,42.68913 72.7788264,42.6356365 72.6469088,42.2590887 C72.5245471,41.9121948 72.0267099,40.8917478 70.3840333,38.0381012 L67.1774579,40.090508 C69.6595356,44.5105843 70.302692,48.3999119 69.088864,51.6577833 L68.8857436,52.2034173 L68.8857436,52.2034173 Z M62.4995123,35.793583 C62.9615734,36.4467853 63.4562642,37.1833678 63.9768258,37.9932132 C64.7233486,39.154604 65.7840496,40.9037257 67.129329,43.1920854 C67.5156363,43.8484163 67.8405857,44.5388366 68.1000651,45.2546093 C67.68287,43.6844583 66.9539439,42.0069713 65.9149184,40.22994 L65.9041972,40.2368011 L63.1340451,35.6963643 L62.4995123,35.793583 L62.4995123,35.793583 Z M72.716014,43.9573915 C73.1426484,43.9968139 73.517891,44.0972887 73.8391778,44.2581181 C74.1720016,43.7096932 74.3327033,43.2142968 74.3175537,42.780883 C74.3079978,42.5126013 74.0216714,41.4209847 71.5773511,37.1018484 L71.4371595,36.8541501 L71.6970325,36.2337416 L70.936642,36.1408257 L70.8512219,36.519583 L71.0881375,36.9286922 C73.1832026,40.5457843 73.6086717,41.4836652 73.7465325,41.8744004 C74.0484745,42.7363438 73.7894174,43.4390859 73.0361355,43.8035395 C72.9439563,43.8484275 72.83756,43.8995952 72.716014,43.9573915 L72.716014,43.9573915 Z M70.9140343,30.2984033 L71.2410312,30.7144897 C73.9343868,34.1406333 76.4898815,36.4562048 78.8364291,37.5967796 L79.2068936,37.776797 L79.1602796,38.1852083 C79.1050805,38.662942 79.0282051,39.1379326 78.9298901,39.6087174 C79.0603696,39.2035236 79.1801313,38.7949706 79.2890508,38.3834833 L79.4386816,37.8181963 L80.0043422,37.9706529 C82.4147509,38.620134 84.3004027,38.785615 85.5551345,38.4609325 C86.5130516,38.212304 87.1266081,38.0136802 87.519564,37.8601771 C87.091456,37.5706721 86.7268763,37.1972433 86.4480252,36.7626297 C86.419603,36.7184571 86.3918259,36.6738744 86.3647027,36.6288959 L86.6453189,37.6569017 L86.037123,37.7815649 C85.3171702,37.9291372 84.5547985,38.0039119 83.7714508,38.0039119 L83.7711011,38.0039119 C82.6171721,38.0039119 81.3761915,37.8415707 80.0831198,37.5215399 L79.5972857,37.4012957 L79.643317,36.9039224 C79.8274422,34.9075676 79.7331655,32.4998941 79.3630505,29.7476526 L79.3358978,29.5451912 L79.4725933,29.3188904 L78.52598,29.2955161 C78.7924954,30.6071538 78.9989953,31.8270387 79.1408183,32.9301681 C79.3122412,34.2694829 79.3630505,35.4392466 79.2920807,36.4072466 L79.2300841,37.2527931 L78.4620023,36.8904327 C76.5578214,35.9922067 74.3339851,33.9280547 71.6633539,30.5801745 L71.2614249,30.0762889 L71.3093207,30.0455882 C70.5316831,29.0885194 69.8621899,28.1749431 69.3186709,27.3292804 L69.1898998,27.128796 L69.265531,26.7699243 L68.2287196,27.0243674 C68.993655,27.9770171 69.8708134,29.0731691 70.8451621,30.2944493 L70.8706832,30.3264292 L70.9140343,30.2984033 L70.9140343,30.2984033 Z M70.4286662,26.9001694 C70.8583305,27.552674 71.365141,28.2472757 71.9408236,28.972578 L74.808865,27.1367037 C74.5790581,27.0612314 74.3431914,26.9152871 74.0956712,26.6963126 C73.7615655,26.4165182 72.9391784,25.9712428 70.920094,25.431656 L70.747972,25.3857214 L70.4286662,26.9001694 Z M77.6720119,25.3583932 L77.4607341,26.1082327 L78.4432402,25.4794514 L77.6720119,25.3583932 L77.6720119,25.3583932 Z M73.0990644,24.8936973 C73.8987272,25.1919818 74.4786051,25.4963135 74.8532648,25.8127392 L74.8644522,25.8223913 C74.9717809,25.9177493 75.050675,25.9706614 75.1034654,25.9999665 C75.1336479,25.9498454 75.1730367,25.8812342 75.2230301,25.7883182 C75.2506489,25.7371505 75.334321,25.582252 75.2155719,25.2203567 C75.1492635,25.0175465 74.8162067,24.9361433 74.5486425,24.9034657 C74.2313178,24.865904 73.7373262,24.8621827 73.0990644,24.8936973 L73.0990644,24.8936973 Z" id="形状" fill="#EDEDED"></path>
            </g>
        </g>
    </g>
</svg>