<?xml version="1.0" encoding="UTF-8"?>
<svg width="18px" height="18px" viewBox="0 0 18 18" version="1.1" xmlns="http://www.w3.org/2000/svg" xmlns:xlink="http://www.w3.org/1999/xlink">
    <!-- Generator: Sketch 61 (89581) - https://sketch.com -->
    <title>订单管理</title>
    <desc>Created with Sketch.</desc>
    <g id="伴伴后台1" stroke="none" stroke-width="1" fill-rule="evenodd" opacity="0.599999964">
        <g id="3.1.01企业列表" transform="translate(-22.000000, -231.000000)" fill-rule="nonzero">
            <g id="左侧导航栏">
                <g id="订单管理" transform="translate(21.000000, 230.000000)">
                    <rect id="矩形" opacity="0" x="0" y="0" width="20.8" height="20.8"></rect>
                    <path d="M18.2365625,7.75734375 C17.8973437,7.75734375 17.6210938,8.03359375 17.6210938,8.3728125 L17.6210938,15.9615625 C17.6210938,16.4978125 17.1884375,16.9325 16.65625,16.9325 L3.4815625,16.9325 C2.949375,16.9325 2.51671875,16.4957812 2.51671875,15.9615625 L2.51671875,3.5059375 C2.51671875,2.9696875 2.949375,2.535 3.4815625,2.535 L12.2545312,2.535 C12.59375,2.535 12.87,2.25875 12.87,1.91953125 C12.87,1.5803125 12.59375,1.3040625 12.2545312,1.3040625 L3.4815625,1.3040625 C2.27296875,1.3040625 1.2878125,2.29125 1.2878125,3.50390625 L1.2878125,15.9595313 C1.2878125,17.1721875 2.2709375,18.159375 3.4815625,18.159375 L16.6542187,18.159375 C17.8648437,18.159375 18.85,17.1721875 18.8520312,15.9595313 L18.8520312,8.3728125 C18.8520312,8.03359375 18.5757812,7.75734375 18.2365625,7.75734375 Z M18.0375,3.631875 C18.0801563,3.58921875 18.1309375,3.54046875 18.1878125,3.485625 C18.2446875,3.43078125 18.3096875,3.3678125 18.3828125,3.2946875 C18.4498437,3.2215625 18.4985938,3.14640625 18.5290625,3.0671875 C18.5595313,2.99 18.57375,2.91078125 18.57375,2.8315625 C18.57375,2.75234375 18.565625,2.6771875 18.5514063,2.6040625 C18.5371875,2.5309375 18.516875,2.46796875 18.4925,2.413125 C18.4071875,2.23234375 18.2873438,2.05765625 18.1329688,1.8890625 C17.9785938,1.7225 17.8384375,1.60671875 17.7104688,1.5396875 C17.6495313,1.50921875 17.5784375,1.4828125 17.4971875,1.4584375 C17.4159375,1.4340625 17.330625,1.41984375 17.2432813,1.4178125 C17.1559375,1.41578125 17.0665625,1.42796875 16.9751563,1.454375 C16.88375,1.48078125 16.7964063,1.5275 16.7110937,1.59453125 C16.6440625,1.649375 16.5607813,1.72453125 16.46125,1.81796875 C16.3596875,1.9134375 16.274375,1.99265625 16.20125,2.0596875 L17.9014063,3.75984375 C17.9440625,3.72328125 17.98875,3.680625 18.0375,3.631875 L18.0375,3.631875 Z M11.6654688,6.589375 C11.5334375,6.7275 11.448125,6.8128125 11.4115625,6.849375 C11.32625,6.9346875 11.26125,7.011875 11.2165625,7.076875 C11.171875,7.1459375 11.13125,7.223125 11.0946875,7.3084375 C11.0642187,7.36328125 11.025625,7.4628125 10.976875,7.6090625 C10.928125,7.7553125 10.8773438,7.91375 10.8265625,8.08640625 C10.7757813,8.25296875 10.7270313,8.41953125 10.6803125,8.58609375 C10.6335938,8.7465625 10.6051562,8.8684375 10.5929688,8.95375 C10.5685937,9.1121875 10.5828125,9.22390625 10.6376563,9.2909375 C10.6925,9.35796875 10.8001563,9.38234375 10.9646875,9.3640625 C11.0439063,9.351875 11.16375,9.32546875 11.3242188,9.2828125 C11.4846875,9.24015625 11.6553125,9.189375 11.8340625,9.1325 C12.0128125,9.075625 12.1854688,9.01671875 12.3479688,8.95578125 C12.5104688,8.89484375 12.634375,8.8440625 12.7196875,8.80140625 C12.805,8.76484375 12.88625,8.71609375 12.9654688,8.65515625 C13.0446875,8.59421875 13.11375,8.53734375 13.1746875,8.4825 C13.1990625,8.46625 13.2742188,8.393125 13.4021875,8.26515625 C13.528125,8.13921875 13.690625,7.97671875 13.8835938,7.7796875 C14.0765625,7.58265625 14.2959375,7.3653125 14.5376563,7.1296875 L15.2648438,6.394375 L17.2189063,4.4403125 L15.51875,2.73203125 L12.1651563,6.085625 C11.9660938,6.2846875 11.7995313,6.45328125 11.6654688,6.589375 L11.6654688,6.589375 Z M14.885,10.6559375 L5.14921875,10.6559375 C4.81,10.6559375 4.53375,10.9321875 4.53375,11.2714063 C4.53375,11.610625 4.81,11.886875 5.14921875,11.886875 L14.885,11.886875 C15.2242188,11.886875 15.5004687,11.6126563 15.5004687,11.2714063 C15.5004687,10.9321875 15.2242188,10.6559375 14.885,10.6559375 Z M14.885,13.6784375 L5.14921875,13.6784375 C4.81,13.6784375 4.53375,13.9546875 4.53375,14.2939063 C4.53375,14.633125 4.81,14.909375 5.14921875,14.909375 L14.885,14.909375 C15.2242188,14.909375 15.5004687,14.633125 15.5004687,14.2939063 C15.5004687,13.9546875 15.2242188,13.6784375 14.885,13.6784375 Z" id="形状" ></path>
                </g>
            </g>
        </g>
    </g>
</svg>