<?xml version="1.0" encoding="UTF-8"?>
<svg width="18px" height="20px" viewBox="0 0 18 20" version="1.1" xmlns="http://www.w3.org/2000/svg" xmlns:xlink="http://www.w3.org/1999/xlink">
    <!-- Generator: Sketch 55.2 (78181) - https://sketchapp.com -->
    <title></title>
    <desc>Created with Sketch.</desc>
    <g id="Page-1" stroke="none" stroke-width="1" >
        <g id="雇主责任险-菜单缩起-二级" transform="translate(-30.000000, -182.000000)" >
            <g id="修改的左侧导航栏">
                <g id="产品管理" transform="translate(30.000000, 182.000000)">
                    <path d="M14.38875,2.15401786 L14.38875,15.7254464 C14.38875,16.1205357 14.067,16.4397321 13.66875,16.4397321 L2.17125,16.4397321 C1.773,16.4397321 1.45125,16.1205357 1.45125,15.7254464 L1.45125,2.15401786 C1.45125,1.75892857 1.773,1.43973214 2.17125,1.43973214 L13.66875,1.43973214 C14.067,1.43973214 14.38875,1.75892857 14.38875,2.15401786 Z M14.38875,0.0111607143 L1.45125,0.0111607143 C0.657,0.0111607143 0.01125,0.651785714 0.01125,1.43973214 L0.01125,16.4397321 C0.01125,17.2276786 0.657,17.8683036 1.45125,17.8683036 L14.38875,17.8683036 C15.183,17.8683036 15.82875,17.2276786 15.82875,16.4397321 L15.82875,1.43973214 C15.82875,0.651785714 15.183,0.0111607143 14.38875,0.0111607143 Z" id="形状" ></path>
                    <path d="M11.86875,5.01116071 L3.94875,5.01116071 C3.5505,5.01116071 3.22875,4.69196429 3.22875,4.296875 C3.22875,3.90178571 3.5505,3.58258929 3.94875,3.58258929 L11.86875,3.58258929 C12.267,3.58258929 12.58875,3.90178571 12.58875,4.296875 C12.58875,4.69196429 12.267,5.01116071 11.86875,5.01116071 Z M11.86875,9.296875 L3.94875,9.296875 C3.5505,9.296875 3.22875,8.97767857 3.22875,8.58258929 C3.22875,8.1875 3.5505,7.86830357 3.94875,7.86830357 L11.86875,7.86830357 C12.267,7.86830357 12.58875,8.1875 12.58875,8.58258929 C12.58875,8.97767857 12.267,9.296875 11.86875,9.296875 Z M7.54875,13.5825893 L3.94875,13.5825893 C3.5505,13.5825893 3.22875,13.2633929 3.22875,12.8683036 C3.22875,12.4732143 3.5505,12.1540179 3.94875,12.1540179 L7.54875,12.1540179 C7.947,12.1540179 8.26875,12.4732143 8.26875,12.8683036 C8.26875,13.2633929 7.947,13.5825893 7.54875,13.5825893 Z" id="形状" ></path>
                    <path d="M16.54875,2.13169643 L16.5375,2.13169643 L16.5375,4.14955357 C16.54425,4.18973214 16.54875,4.23214286 16.54875,4.27455357 L16.54875,17.8459821 C16.54875,18.2410714 16.227,18.5602679 15.82875,18.5602679 L1.45125,18.5602679 C1.45125,19.3482143 2.097,19.9888393 2.89125,19.9888393 L16.54875,19.9888393 C17.343,19.9888393 17.98875,19.3482143 17.98875,18.5602679 L17.98875,3.56026786 C17.98875,2.77232143 17.343,2.13169643 16.54875,2.13169643 Z" id="路径"></path>
                </g>
            </g>
        </g>
    </g>
</svg>