<?xml version="1.0" encoding="UTF-8"?>
<svg width="19px" height="19px" viewBox="0 0 19 19" version="1.1" xmlns="http://www.w3.org/2000/svg" xmlns:xlink="http://www.w3.org/1999/xlink">
    <!-- Generator: Sketch 61 (89581) - https://sketch.com -->
    <title>商品管理</title>
    <desc>Created with Sketch.</desc>
    <g id="伴伴后台1" stroke="none" stroke-width="1"  fill-rule="evenodd" opacity="0.599999964">
        <g id="3.1.01企业列表" transform="translate(-22.000000, -175.000000)" fill-rule="nonzero">
            <g id="左侧导航栏">
                <g id="商品管理" transform="translate(21.000000, 174.000000)">
                    <rect id="矩形"  opacity="0" x="0" y="0" width="20.8" height="20.8"></rect>
                    <path d="M3.37927177,19.5 C2.23279145,19.5 1.3,18.5166114 1.3,16.9316843 L1.30026775,2.4459064 C1.30026775,1.81836501 1.85305289,1.3 2.53251275,1.3 L18.2677907,1.3 C18.9472149,1.3 19.5,1.73469284 19.5,2.4459064 C19.5,2.90517728 19.5,16.9316843 19.5,16.9316843 C19.5,18.5166114 18.5672978,19.5 17.4209424,19.5 L3.37927177,19.5 Z M2.64585422,17.3079241 C2.64585422,17.7761535 2.97481226,18.1571131 3.37927177,18.1571131 L17.4209603,18.1571131 C17.8252413,18.1571131 18.1541993,17.7761535 18.1541993,17.3079241 L18.1541993,15.7473079 L2.64585422,15.7473079 L2.64585422,17.3079241 Z M18.1541993,14.3599846 L18.1541993,2.64318965 L2.64612195,2.64318965 L2.64612195,14.3599846 L18.1541993,14.3599846 L18.1541993,14.3599846 Z M10.4204907,10.4020482 C7.33501436,10.4020482 5.51032363,7.78258165 5.17577884,4.72445061 C5.15468126,4.53117464 5.21804539,4.33624231 5.34930733,4.18978928 C5.48281824,4.04160865 5.67357106,3.95638699 5.87290926,3.95638699 C6.22756992,3.95638699 6.52363215,4.22036934 6.56191837,4.57039262 C6.81814151,6.92267095 8.04713799,9.00988051 10.4204729,9.00988051 C12.7945753,9.00988051 14.0030275,6.92267095 14.2593399,4.57039262 C14.2976261,4.22038714 14.5936526,3.95638699 14.9484025,3.95638699 C15.1476872,3.95638699 15.338315,4.04160865 15.4715582,4.18978928 C15.603195,4.3362245 15.6664699,4.53121025 15.645408,4.72445061 C15.3103099,7.78258165 13.5060385,10.4020482 10.4204907,10.4020482 Z" id="形状" ></path>
                </g>
            </g>
        </g>
    </g>
</svg>