<?xml version="1.0" encoding="UTF-8"?>
<svg width="14px" height="14px" viewBox="0 0 14 14" version="1.1" xmlns="http://www.w3.org/2000/svg" xmlns:xlink="http://www.w3.org/1999/xlink">
    <!-- Generator: Sketch 55.2 (78181) - https://sketchapp.com -->
    <title></title>
    <desc>Created with Sketch.</desc>
    <g id="Page-1" stroke="none" stroke-width="1" fill-rule="evenodd">
        <g id="新增产品配置总界面" transform="translate(-305.000000, -727.000000)"  fill-rule="nonzero">
            <path d="M316.949763,729.05027 C315.582919,727.683417 313.791449,727 312.000017,727 C310.208546,727 308.417095,727.683397 307.050251,729.05027 C304.316583,731.783956 304.316583,736.216025 307.050251,738.949769 C308.417076,740.316622 310.208527,741 312.000017,741 C313.791449,741 315.582919,740.316603 316.949763,738.949769 C319.683412,736.216063 319.683412,731.783956 316.949763,729.05027 Z M312.002661,737.614864 C311.705726,737.614864 311.465004,737.37414 311.465004,737.077203 C311.465004,736.780266 311.705726,736.539543 312.002661,736.539543 C312.299597,736.539543 312.540318,736.780266 312.540318,737.077203 C312.540318,737.37414 312.299597,737.614864 312.002661,737.614864 Z M314.086926,733.199012 C313.940432,733.462019 313.654191,733.782425 313.228883,734.159474 C312.943401,734.414159 312.756151,734.600593 312.668768,734.721227 C312.581327,734.841938 312.515624,734.979275 312.473138,735.135745 C312.43071,735.292196 312.406599,735.545169 312.39991,735.896434 L311.556801,735.896434 C311.553496,735.779087 311.551824,735.691664 311.551824,735.633428 C311.551824,735.288832 311.600921,734.991719 311.698337,734.741216 C311.769873,734.552312 311.885587,734.362514 312.044525,734.170266 C312.161056,734.03046 312.37158,733.825728 312.67536,733.557725 C312.979198,733.28976 313.177239,733.07585 313.267986,732.916911 C313.358714,732.757913 313.404466,732.583982 313.404466,732.395078 C313.404466,732.053846 313.271292,731.753389 313.005001,731.49538 C312.73869,731.23739 312.411616,731.107539 312.024556,731.107539 C311.650912,731.107539 311.338733,731.224868 311.088269,731.458746 C310.837767,731.692606 310.673812,732.057968 310.595568,732.55567 L309.693348,732.448356 C309.774936,731.781701 310.01628,731.271496 310.417476,730.916925 C310.818595,730.562412 311.349602,730.385117 312.009584,730.385117 C312.708707,730.385117 313.266353,730.575673 313.682443,730.956028 C314.098592,731.336382 314.306686,731.796673 314.306686,732.335967 C314.306686,732.648051 314.23342,732.936005 314.086926,733.199012 Z" id="形状"></path>
        </g>
    </g>
</svg>