<?xml version="1.0" standalone="no"?><!DOCTYPE svg PUBLIC "-//W3C//DTD SVG 1.1//EN" "http://www.w3.org/Graphics/SVG/1.1/DTD/svg11.dtd"><svg t="1567146641330" class="icon" viewBox="0 0 1024 1024" version="1.1" xmlns="http://www.w3.org/2000/svg" p-id="1694" xmlns:xlink="http://www.w3.org/1999/xlink" width="200" height="200"><defs><style type="text/css"></style></defs><path d="M0 0h1024v1024H0z" fill="#FFFFFF" p-id="1695"></path><path d="M103.537778 216.917333v591.075556c0 25.144889 20.878222 45.511111 46.648889 45.511111h309.930666c8.135111 16.099556 17.806222 31.402667 28.785778 45.624889H150.186667c-51.484444 0-93.297778-40.675556-93.297778-90.908445V217.144889C56.888889 166.968889 98.702222 126.236444 150.186667 126.236444h46.648889v45.226667h-46.648889a46.08 46.08 0 0 0-46.648889 45.511111z m209.066666 318.520889a22.129778 22.129778 0 0 1-22.414222-21.845333v-1.763556c0-12.117333 10.012444-21.845333 22.414222-21.845333h251.335112a290.702222 290.702222 0 0 0-55.523556 45.454222H312.604444zM290.190222 377.685333v-2.844444a21.617778 21.617778 0 0 1 21.845334-21.333333h352.938666a21.617778 21.617778 0 0 1 21.845334 21.333333v2.844444a21.617778 21.617778 0 0 1-21.845334 21.276445H312.035556a21.617778 21.617778 0 0 1-21.845334-21.276445z m22.414222 248.604445H449.991111a275.057778 275.057778 0 0 0-13.937778 45.511111h-123.448889a22.129778 22.129778 0 0 1-22.414222-21.902222v-1.706667a22.186667 22.186667 0 0 1 22.414222-21.902222z m-69.063111 23.950222a21.788444 21.788444 0 0 1-22.072889 21.504h-2.503111a21.788444 21.788444 0 0 1-22.072889-21.504v-2.446222c0-11.889778 9.841778-21.504 22.072889-21.504h2.503111c12.174222 0 22.072889 9.671111 22.072889 21.504v2.446222z m-22.072889-114.915556h-2.503111a21.788444 21.788444 0 0 1-22.072889-21.447111v-2.446222c0-11.946667 9.841778-21.504 22.072889-21.504h2.503111c12.174222 0 22.072889 9.614222 22.072889 21.504v2.446222a21.788444 21.788444 0 0 1-22.072889 21.504z m22.072889-160.312888v2.446222c0 11.946667-9.898667 21.504-22.072889 21.504h-2.503111a21.788444 21.788444 0 0 1-22.072889-21.504v-2.446222c0-11.946667 9.841778-21.504 22.072889-21.504h2.503111c12.174222 0 22.072889 9.614222 22.072889 21.504z m0.910223-135.168h-1.820445a22.129778 22.129778 0 0 1-22.414222-21.845334V79.872c0-12.060444 10.012444-21.845333 22.414222-21.845333h1.820445c12.401778 0 22.414222 9.784889 22.414222 21.845333v138.183111a22.186667 22.186667 0 0 1-22.414222 21.845333zM290.133333 171.463111h279.950223V126.236444h-279.893334v45.226667zM617.813333 239.900444h-1.820444a22.129778 22.129778 0 0 1-22.414222-21.845333V79.872c0-12.060444 10.012444-21.845333 22.414222-21.845333h1.820444c12.344889 0 22.414222 9.784889 22.414223 21.845333v138.183111a22.129778 22.129778 0 0 1-22.414223 21.845333z m139.036445-22.983111a46.08 46.08 0 0 0-46.648889-45.454222h-46.648889V126.236444h46.648889c51.541333 0 93.297778 40.732444 93.297778 90.908445v238.876444a300.942222 300.942222 0 0 0-46.648889-9.329777V216.917333z m-34.986667 318.520889c-109.511111 0-198.314667 86.471111-198.314667 193.194667s88.803556 193.251556 198.314667 193.251555c109.511111 0 198.314667-86.471111 198.314667-193.251555 0-106.666667-88.746667-193.194667-198.314667-193.194667z m-0.113778 431.616c-135.224889 0-244.849778-106.723556-244.849777-238.478222 0-131.697778 109.624889-238.478222 244.849777-238.478222 135.281778 0 244.906667 106.780444 244.906667 238.478222 0 131.754667-109.624889 238.478222-244.906667 238.478222z" fill="#333333" p-id="1696"></path><path d="M798.663111 736.142222h-152.462222v77.425778c0 1.934222 0.455111 3.527111 1.479111 4.721778 0.967111 1.251556 2.104889 1.820444 3.356444 1.820444h142.791112c1.251556 0 2.389333-0.568889 3.356444-1.706666a6.769778 6.769778 0 0 0 1.479111-4.551112V736.142222z m0-92.558222a6.940444 6.940444 0 0 0-1.365333-4.209778 4.152889 4.152889 0 0 0-3.470222-1.820444h-143.075556c-1.251556 0-2.332444 0.568889-3.242667 1.820444a7.281778 7.281778 0 0 0-1.308444 4.437334v71.168h152.462222v-71.395556z m20.935111 172.373333a23.608889 23.608889 0 0 1-7.68 18.545778 28.216889 28.216889 0 0 1-19.456 6.826667h-140.117333a27.591111 27.591111 0 0 1-19.456-6.826667 24.007111 24.007111 0 0 1-7.395556-18.545778v-174.478222c0-7.850667 2.446222-13.994667 7.395556-18.432a27.875556 27.875556 0 0 1 19.456-6.656h140.117333c7.907556 0 14.392889 2.218667 19.456 6.656 5.12 4.437333 7.68 10.581333 7.68 18.432v174.478222z" fill="#333333" p-id="1697"></path></svg>