<?xml version="1.0" standalone="no"?><!DOCTYPE svg PUBLIC "-//W3C//DTD SVG 1.1//EN" "http://www.w3.org/Graphics/SVG/1.1/DTD/svg11.dtd"><svg t="1567405497067" class="icon" viewBox="0 0 1024 1024" version="1.1" xmlns="http://www.w3.org/2000/svg" p-id="951" xmlns:xlink="http://www.w3.org/1999/xlink" width="200" height="200"><defs><style type="text/css"></style></defs><path d="M704 554.666667h-384a42.780444 42.780444 0 0 1-42.666667-42.666667c0-23.495111 19.171556-42.666667 42.666667-42.666667h384c23.438222 0 42.666667 19.171556 42.666667 42.666667s-19.228444 42.666667-42.666667 42.666667z" fill="#FF960B" p-id="952"></path><path d="M554.666667 320v384c0 23.438222-19.171556 42.666667-42.666667 42.666667a42.780444 42.780444 0 0 1-42.666667-42.666667v-384c0-23.495111 19.171556-42.666667 42.666667-42.666667s42.666667 19.171556 42.666667 42.666667z" fill="#FF960B" p-id="953"></path><path d="M512 1024c-281.6 0-512-230.4-512-512s230.4-512 512-512 512 230.4 512 512-230.4 512-512 512zM512 85.333333C277.333333 85.333333 85.333333 277.333333 85.333333 512s192 426.666667 426.666667 426.666667 426.666667-192 426.666667-426.666667S746.666667 85.333333 512 85.333333z" fill="#FF960B" p-id="954"></path></svg>