<?xml version="1.0" standalone="no"?><!DOCTYPE svg PUBLIC "-//W3C//DTD SVG 1.1//EN" "http://www.w3.org/Graphics/SVG/1.1/DTD/svg11.dtd"><svg t="1567396898719" class="icon" viewBox="0 0 1024 1024" version="1.1" xmlns="http://www.w3.org/2000/svg" p-id="1371" xmlns:xlink="http://www.w3.org/1999/xlink" width="200" height="200"><defs><style type="text/css"></style></defs><path d="M512 1024C229.214316 1024 0 794.785684 0 512A512 512 0 0 1 512 0a512 512 0 0 1 0 1024z m0.916211-945.529263c-239.885474 0-434.391579 194.344421-434.391579 433.960421 0 239.669895 194.56 434.014316 434.391579 434.014316 239.885474 0 434.337684-194.290526 434.337684-434.014316 0-239.669895-194.452211-433.960421-434.337684-433.960421z m174.349473 473.626947h-348.698947a39.666526 39.666526 0 0 1 0-79.279158h348.698947a39.666526 39.666526 0 0 1 0 79.279158z" fill="#000000" p-id="1372"></path></svg>