<?xml version="1.0" standalone="no"?><!DOCTYPE svg PUBLIC "-//W3C//DTD SVG 1.1//EN" "http://www.w3.org/Graphics/SVG/1.1/DTD/svg11.dtd"><svg t="1567146647653" class="icon" viewBox="0 0 1024 1024" version="1.1" xmlns="http://www.w3.org/2000/svg" p-id="1822" xmlns:xlink="http://www.w3.org/1999/xlink" width="200" height="200"><defs><style type="text/css"></style></defs><path d="M0 0h1024v1024H0z" fill="#FFFFFF" p-id="1823"></path><path d="M103.537778 216.917333v591.075556c0 25.144889 20.878222 45.511111 46.648889 45.511111h309.930666c8.135111 16.099556 17.749333 31.402667 28.785778 45.624889H150.186667c-51.484444 0-93.297778-40.675556-93.297778-90.908445V217.144889C56.888889 166.968889 98.702222 126.236444 150.186667 126.236444h46.648889v45.226667h-46.648889a46.08 46.08 0 0 0-46.648889 45.511111z m209.066666 318.520889a22.129778 22.129778 0 0 1-22.414222-21.845333v-1.763556c0-12.117333 10.012444-21.845333 22.414222-21.845333h251.335112a290.702222 290.702222 0 0 0-55.523556 45.454222H312.604444zM290.190222 377.685333v-2.844444a21.617778 21.617778 0 0 1 21.845334-21.333333h352.938666a21.617778 21.617778 0 0 1 21.845334 21.333333v2.844444a21.617778 21.617778 0 0 1-21.845334 21.276445H312.035556a21.617778 21.617778 0 0 1-21.845334-21.276445z m22.414222 248.604445H449.991111a274.944 274.944 0 0 0-13.937778 45.511111h-123.448889a22.129778 22.129778 0 0 1-22.414222-21.902222v-1.706667c0-12.117333 10.012444-21.902222 22.414222-21.902222z m-69.063111 23.950222a21.788444 21.788444 0 0 1-22.072889 21.504h-2.503111a21.788444 21.788444 0 0 1-22.072889-21.504v-2.446222c0-11.889778 9.841778-21.504 22.072889-21.504h2.503111c12.174222 0 22.072889 9.671111 22.072889 21.504v2.446222z m-22.072889-114.915556h-2.503111a21.788444 21.788444 0 0 1-22.072889-21.447111v-2.446222c0-11.946667 9.841778-21.504 22.072889-21.504h2.503111c12.174222 0 22.072889 9.614222 22.072889 21.504v2.446222a21.788444 21.788444 0 0 1-22.072889 21.504z m22.072889-160.312888v2.446222c0 11.946667-9.898667 21.504-22.072889 21.504h-2.503111a21.788444 21.788444 0 0 1-22.072889-21.504v-2.446222c0-11.946667 9.841778-21.504 22.072889-21.504h2.503111c12.174222 0 22.072889 9.614222 22.072889 21.504z m0.910223-135.168h-1.820445a22.129778 22.129778 0 0 1-22.414222-21.845334V79.872c0-12.060444 10.012444-21.845333 22.414222-21.845333h1.820445c12.401778 0 22.414222 9.784889 22.414222 21.845333v138.183111a22.129778 22.129778 0 0 1-22.414222 21.845333zM290.133333 171.463111h279.950223V126.236444h-279.893334v45.226667zM617.813333 239.900444h-1.820444a22.129778 22.129778 0 0 1-22.414222-21.845333V79.872c0-12.060444 10.012444-21.845333 22.414222-21.845333h1.820444a22.186667 22.186667 0 0 1 22.414223 21.845333v138.183111a22.129778 22.129778 0 0 1-22.414223 21.845333z m139.036445-22.983111a46.08 46.08 0 0 0-46.648889-45.454222h-46.648889V126.236444h46.648889c51.541333 0 93.297778 40.732444 93.297778 90.908445v238.876444a300.771556 300.771556 0 0 0-46.648889-9.329777V216.917333z m-34.986667 318.520889c-109.511111 0-198.314667 86.471111-198.314667 193.194667s88.803556 193.251556 198.314667 193.251555c109.511111 0 198.314667-86.471111 198.314667-193.251555 0-106.666667-88.746667-193.194667-198.314667-193.194667z m-0.113778 431.616c-135.224889 0-244.849778-106.723556-244.849777-238.478222 0-131.697778 109.624889-238.478222 244.849777-238.478222 135.281778 0 244.906667 106.780444 244.906667 238.478222 0 131.754667-109.624889 238.478222-244.906667 238.478222z" fill="#333333" p-id="1824"></path><path d="M657.180444 738.702222h142.165334v-44.202666h-142.222222v44.202666z m0-62.976h142.165334v-37.774222c0-1.649778-0.455111-2.787556-1.251556-3.413333a4.835556 4.835556 0 0 0-3.072-1.024h-133.802666c-1.365333 0-2.332444 0.284444-3.015112 0.853333-0.682667 0.568889-1.024 1.820444-1.024 3.584v37.774222z m134.542223 138.524445a9.728 9.728 0 0 0 6.087111-6.030223 51.768889 51.768889 0 0 0 1.536-15.189333v-35.555555h-142.449778a138.183111 138.183111 0 0 1-6.200889 35.669333 166.286222 166.286222 0 0 1-17.863111 37.432889 15.701333 15.701333 0 0 1-7.566222 6.144c-2.844444 1.024-5.688889 0.568889-8.362667-1.194667a9.386667 9.386667 0 0 1-4.096-6.428444c-0.455111-2.844444 0.568889-6.371556 3.299556-10.638223 3.754667-5.745778 6.940444-11.491556 9.671111-17.180444 2.673778-5.688889 4.892444-11.832889 6.712889-18.488889 1.706667-6.656 3.015111-14.108444 3.754666-22.186667 0.796444-8.192 1.137778-17.521778 1.137778-28.046222v-94.606222c0-8.362667 1.706667-14.449778 5.12-18.147556 3.356444-3.697778 9.614222-5.518222 18.773333-5.518222h133.745778c8.931556 0 15.189333 1.649778 18.773334 4.892445 3.527111 3.299556 5.290667 9.500444 5.290666 18.545777v157.297778c0 13.141333-2.673778 22.812444-7.964444 29.013334-5.347556 6.144-13.880889 9.386667-25.713778 9.728-5.233778 0-11.036444-0.568889-17.351111-1.592889a206.791111 206.791111 0 0 1-21.674667-5.12 10.467556 10.467556 0 0 1-5.973333-5.12 9.443556 9.443556 0 0 1-0.853333-7.168 9.443556 9.443556 0 0 1 4.437333-5.916445c2.104889-1.137778 5.233778-1.137778 9.500444 0 8.419556 2.275556 15.928889 4.096 22.641778 5.404445a30.663111 30.663111 0 0 0 15.587556 0z" fill="#333333" p-id="1825"></path></svg>