<?xml version="1.0" standalone="no"?><!DOCTYPE svg PUBLIC "-//W3C//DTD SVG 1.1//EN" "http://www.w3.org/Graphics/SVG/1.1/DTD/svg11.dtd"><svg t="1567405501875" class="icon" viewBox="0 0 1024 1024" version="1.1" xmlns="http://www.w3.org/2000/svg" p-id="1079" xmlns:xlink="http://www.w3.org/1999/xlink" width="200" height="200"><defs><style type="text/css"></style></defs><path d="M512 1024c-281.6 0-512-230.4-512-512s230.4-512 512-512 512 230.4 512 512-230.4 512-512 512z m42.666667-469.333333h149.333333c23.438222 0 42.666667-19.171556 42.666667-42.666667a42.780444 42.780444 0 0 0-42.666667-42.666667H554.666667V320a42.780444 42.780444 0 0 0-42.666667-42.666667 42.780444 42.780444 0 0 0-42.666667 42.666667V469.333333H320a42.780444 42.780444 0 0 0-42.666667 42.666667c0 23.495111 19.171556 42.666667 42.666667 42.666667H469.333333v149.333333c0 23.438222 19.171556 42.666667 42.666667 42.666667s42.666667-19.228444 42.666667-42.666667V554.666667z" fill="#FF960B" p-id="1080"></path></svg>