<?xml version="1.0" encoding="UTF-8"?>
<svg width="21px" height="20px" viewBox="0 0 21 20" version="1.1" xmlns="http://www.w3.org/2000/svg" xmlns:xlink="http://www.w3.org/1999/xlink">
    <!-- Generator: Sketch 55.2 (78181) - https://sketchapp.com -->
    <title></title>
    <desc>Created with Sketch.</desc>
    <g id="Page-1" stroke="none" stroke-width="1" >
        <g id="雇主责任险-菜单缩起-二级" transform="translate(-29.000000, -231.000000)" >
            <g id="人员管理" transform="translate(29.000000, 231.000000)">
                <rect id="矩形" opacity="0" x="0.0204479065" y="0" width="20.9386563" height="20"></rect>
                <path d="M5.06349056,5.065 C5.06349056,2.999375 6.852437,1.289375 9.01500759,1.289375 C11.1775782,1.289375 12.9678333,2.999375 12.9678333,5.065 C12.9678333,7.130625 11.1775782,8.84 9.01500759,8.84 C6.85178267,8.84 5.06349056,7.130625 5.06349056,5.065 Z M2.54038247,18.500625 C2.22452421,18.5047049 1.92036099,18.3866125 1.69705668,18.173201 C1.47375236,17.9597894 1.35028541,17.6691964 1.35473106,17.3675 C1.35473106,13.5925 4.41242921,10.471875 8.28215463,10.116875 L9.09679922,10.116875 C9.99061811,10.05 11.2574068,9.828125 11.9209005,9.261875 L12.2238567,9.050625 C13.4912997,8.051875 14.2339677,6.630625 14.2339677,5.065 C14.2339677,2.289375 11.8495782,0.0125 8.87563466,0.0125 C6.12023836,0.0125 3.73781188,2.289375 3.73781188,5.065 C3.73781188,6.630625 4.48113418,8.051875 5.74857722,9.050625 L6.12023836,9.261875 L5.74923155,9.40625 C2.31921792,10.683125 0.0184713132,13.81375 0.0184713132,17.3675 C0.0122286566,18.0111654 0.27711736,18.6302347 0.753639725,19.0853951 C1.23016209,19.5405555 1.87828604,19.7935695 2.55216047,19.7876067 L9.32843311,19.7876067 C9.54959766,19.7876067 9.92125881,19.576875 9.92125881,19.14375 C9.92125881,18.644375 9.54959766,18.500625 9.32843311,18.500625 L2.54038247,18.500625 Z M19.7323279,15.65875 C18.6166902,15.8025 17.7909219,16.655625 17.7909219,17.78875 C17.7909219,18 17.8609355,18.28875 17.9420728,18.43375 L16.9769316,18.933125 L16.6059248,18.578125 C16.1629414,18.28875 15.7919346,18.156875 15.3384818,18.156875 C14.9648576,18.156875 14.5244915,18.3 14.0710388,18.578125 C13.9198878,18.72125 13.7687369,18.789375 13.6980689,18.933125 L12.80425,18.43375 C12.8736093,18.28875 12.9547466,18.01125 12.9547466,17.78875 C12.9584015,16.7141822 12.1281283,15.8032538 11.0133406,15.65875 C11.0133406,15.51375 10.9426726,15.23625 10.9426726,14.946875 C10.9426726,14.735625 11.0133406,14.446875 11.0133406,14.23625 C12.1276697,14.09125 12.9547466,13.23625 12.9547466,12.104375 C12.9547466,11.8925 12.8853873,11.605 12.80425,11.46125 L13.7693912,10.960625 C13.8387505,11.0275 13.9885928,11.171875 14.1410524,11.25 C14.5814185,11.538125 14.9550426,11.67125 15.3273581,11.67125 C15.6983649,11.67125 16.0706804,11.5275 16.5117009,11.25 C16.6641605,11.10625 16.8140027,11.03875 16.885325,10.960625 L17.8498119,11.46125 C17.7804526,11.605 17.6973523,11.883125 17.6973523,12.104375 C17.693994,13.1798687 18.5249947,14.0914761 19.6407213,14.23625 C19.6407213,14.38 19.7100806,14.658125 19.7100806,14.946875 C19.8154282,15.1575 19.7323279,15.44625 19.7323279,15.65875 L19.7323279,15.65875 Z M20.7799151,13.88125 C20.7085928,13.525 20.4062909,13.236875 20.1052978,13.236875 L20.0346298,13.236875 C19.3619755,13.236875 18.850287,12.736875 18.850287,12.104375 C18.850287,11.96 18.9196463,11.748125 18.9196463,11.6825 C19.0694886,11.3275 18.9196463,10.904375 18.6166902,10.683125 L17.2805422,9.9725 L16.9075723,9.9725 C16.6883708,9.9725 16.3854146,10.03875 16.2342637,10.260625 C16.0831128,10.405625 15.6407836,10.760625 15.3397905,10.760625 C15.0368343,10.760625 14.5945052,10.405625 14.3733406,10.260625 C14.2234983,10.116875 14.0016795,9.9725 13.6993776,9.9725 C13.5495353,9.9725 13.4795217,9.9725 13.3970758,10.03875 L11.9797905,10.749375 C11.6768343,10.960625 11.536807,11.393125 11.6768343,11.748125 C11.6768343,11.748125 11.7461936,11.96 11.7461936,12.170625 C11.7511793,12.4722568 11.6280668,12.7629599 11.404928,12.9764489 C11.1817892,13.1899379 10.8776468,13.3080127 10.5618508,13.30375 L10.4905285,13.30375 C10.1882267,13.30375 9.89770282,13.593125 9.81656553,13.9475 C9.81656553,14.014375 9.66606894,14.51375 9.66606894,15.014375 C9.66606894,15.436875 9.73542824,16.01375 9.81656553,16.078125 C9.8872335,16.435 10.1875723,16.72375 10.4905285,16.72375 L10.5618508,16.72375 C11.2358138,16.72375 11.7461936,17.22375 11.7461936,17.856875 C11.7461936,18 11.6768343,18.21125 11.6768343,18.276875 C11.526992,18.63375 11.6768343,19.053125 11.9797905,19.27625 L13.3152841,19.98875 C13.4677437,19.921875 13.5377574,19.921875 13.6875996,19.921875 C13.9087642,19.921875 14.211066,19.855625 14.3635256,19.631875 C14.5133679,19.488125 14.955697,19.068125 15.3280125,19.068125 C15.6303143,19.068125 16.1400397,19.4225 16.2924993,19.631875 C16.4429959,19.776875 16.6648148,19.921875 16.9671167,19.921875 C17.1169589,19.921875 17.1876269,19.921875 17.3381235,19.855625 L18.6742715,19.144375 C18.9765733,18.93375 19.1172549,18.50125 18.9765733,18.14375 C18.9765733,18.14375 18.9078684,17.934375 18.9078684,17.723125 C18.9078684,17.07875 19.4313348,16.59 20.0941741,16.59 L20.1635334,16.59 C20.4651809,16.59 20.7563591,16.300625 20.8368421,15.94625 C20.8368421,15.94625 20.9873387,15.380625 20.9873387,14.879375 C20.8486201,14.524375 20.7799151,13.958125 20.7799151,13.88125 L20.7799151,13.88125 Z M15.3397905,15.86875 C14.8163241,15.86875 14.3733406,15.44625 14.3733406,14.946875 C14.3733406,14.446875 14.8163241,14.025 15.3397905,14.025 C15.8619482,14.025 16.3042773,14.446875 16.3042773,14.946875 C16.3147466,15.44625 15.8612939,15.86875 15.3397905,15.86875 Z M15.7107973,13.02625 C14.2922033,12.736875 13.0254146,13.9475 13.3270621,15.36875 C13.4788674,16.145625 14.1417067,16.789375 14.965512,16.933125 C16.3854146,17.22375 17.6522033,16.013125 17.3499015,14.658125 C17.2105285,13.814375 16.5359112,13.17 15.7107973,13.02625 Z" id="形状"></path>
            </g>
        </g>
    </g>
</svg>