<?xml version="1.0" encoding="UTF-8"?>
<svg width="21px" height="20px" viewBox="0 0 21 20" version="1.1" xmlns="http://www.w3.org/2000/svg" xmlns:xlink="http://www.w3.org/1999/xlink">
    <!-- Generator: Sketch 61 (89581) - https://sketch.com -->
    <title>供应商</title>
    <desc>Created with Sketch.</desc>
    <g id="伴伴后台1" stroke="none" stroke-width="1"  fill-rule="evenodd" opacity="0.599999964">
        <g id="3.1.01企业列表" transform="translate(-21.000000, -286.000000)" fill-rule="nonzero">
            <g id="左侧导航栏">
                <g id="供应商" transform="translate(21.000000, 286.000000)">
                    <rect id="矩形" opacity="0" x="0" y="0" width="20.8" height="20.8"></rect>
                    <path d="M12.0162546,12.0545454 L6.01309091,12.0545454 C5.63018182,12.0545454 5.32054545,12.3717454 5.32054545,12.7636364 C5.32054545,13.1555273 5.63065453,13.4727273 6.01309091,13.4727273 L12.0157818,13.4727273 C12.3982182,13.4727273 12.7083273,13.1555273 12.7083273,12.7636364 C12.7083273,12.3717454 12.3982182,12.0545454 12.0157818,12.0545454 M16.5558546,8.43014545 C15.4473091,8.43014545 14.5127273,7.65203636 14.2465818,6.60116364 C14.1553455,6.24094547 13.8409818,5.98803638 13.4779273,5.98803636 C13.1139273,5.98803636 12.8005091,6.24094545 12.7092727,6.60069091 C12.4426546,7.65203636 11.5080727,8.43014545 10.3995273,8.43014545 C9.2909818,8.43014545 8.3564,7.65203636 8.08978182,6.60069091 C7.99854547,6.24094547 7.68465455,5.98803636 7.32112727,5.98803636 C6.95807271,5.98803636 6.64370909,6.24094545 6.55247273,6.60116364 C6.28632729,7.65203638 5.35174547,8.43014545 4.24367273,8.43014545 C2.96494547,8.43014545 1.91927273,7.39676362 1.86018182,6.10338182 L3.4996,2.36363636 L17.3004,2.36363636 L18.9398182,6.10338182 C18.8807273,7.39676364 17.8345818,8.43014545 16.5563273,8.43014545 M17.6246909,0.945454555 L3.17530909,0.945454555 C2.78578182,0.945454555 2.43738182,1.196 2.30549091,1.57229091 L0.472727267,5.86465455 L0.472727267,5.98803636 C0.472727267,7.58585453 1.42669091,8.96054545 2.78152727,9.54625455 L2.78152727,18.2 C2.78152727,19.1137818 3.5048,19.8545454 4.39778182,19.8545454 L13.6320364,19.8545454 C14.5250182,19.8545454 15.2482909,19.1137818 15.2482909,18.2 L15.2482909,13.4727273 C15.2482909,13.0808364 14.9381818,12.7636364 14.5557454,12.7636364 C14.1728364,12.7636364 13.8627273,13.0808364 13.8627273,13.4727273 L13.8627273,18.2 C13.8627273,18.3304727 13.7596727,18.4363636 13.6320364,18.4363636 L4.39778182,18.4363636 C4.33568039,18.4358654 4.27633519,18.4106514 4.23286722,18.3662963 C4.18939926,18.3219412 4.16538915,18.2620988 4.16614545,18.2 L4.16614545,9.84454545 C4.19261818,9.84501818 4.21767271,9.84832727 4.24414545,9.84832727 C5.51294545,9.84832727 6.63803636,9.20305453 7.3216,8.21552727 C8.00563636,9.20305453 9.13025455,9.84832727 10.4,9.84832727 C11.6702182,9.84832727 12.7943636,9.20305453 13.4784,8.21552727 C14.1619636,9.20305453 15.2870546,9.84832727 16.5558546,9.84832727 C16.5823273,9.84832727 16.6073818,9.84501818 16.6338546,9.84454545 L16.6338546,19.1454546 C16.6338546,19.5373455 16.9439636,19.8545454 17.3259273,19.8545454 C17.7083636,19.8545454 18.0184727,19.5373454 18.0184727,19.1454546 L18.0184727,9.54625455 C19.3733091,8.96054545 20.3272727,7.58585455 20.3272727,5.98803636 L20.3272727,5.86465455 L18.4945091,1.57229091 C18.3676605,1.19942001 18.0185407,0.947826098 17.6246909,0.945454555 M12.0167273,14.8909091 L6.01309091,14.8909091 C5.63018182,14.8909091 5.32054545,15.2081091 5.32054545,15.6 C5.32054545,15.9918909 5.63065453,16.3090909 6.01309091,16.3090909 L12.0157818,16.3090909 C12.3982182,16.3090909 12.7083273,15.9918909 12.7083273,15.6 C12.7083273,15.2081091 12.3982182,14.8909091 12.0157818,14.8909091" id="形状"></path>
                </g>
            </g>
        </g>
    </g>
</svg>