<?xml version="1.0" standalone="no"?>
<!DOCTYPE svg PUBLIC "-//W3C//DTD SVG 1.1//EN" "http://www.w3.org/Graphics/SVG/1.1/DTD/svg11.dtd"><svg t="1566891528446" class="icon" viewBox="0 0 1024 1024" version="1.1" xmlns="http://www.w3.org/2000/svg" p-id="1149" xmlns:xlink="http://www.w3.org/1999/xlink" width="200" height="200"><defs><style type="text/css"></style></defs><path d="M891.0848 198.109867H133.051733A64.853333 64.853333 0 0 1 133.12 68.266667h758.033067a64.853333 64.853333 0 0 1 0 129.8432zM512 285.764267a55.9104 55.9104 0 0 0-45.602133 23.7568l-388.232534 558.421333a56.7296 56.7296 0 0 0-3.822933 57.7536c9.489067 18.432 28.398933 30.037333 49.152 30.037333h776.738133c20.821333 0 39.594667-11.605333 49.152-30.037333a56.32 56.32 0 0 0-3.754666-57.821867L557.397333 309.725867a54.8864 54.8864 0 0 0-45.329066-23.893334z" p-id="1150"></path></svg>
